<svg xmlns="http://www.w3.org/2000/svg" xmlns:xlink="http://www.w3.org/1999/xlink" width="500" zoomAndPan="magnify" viewBox="0 0 375 374.999991" height="500" preserveAspectRatio="xMidYMid meet" version="1.0"><defs><g/><clipPath id="7da338c01e"><path d="M 187.5 375 C 137.441406 375 90.304688 355.515625 54.929688 320.070312 C 19.484375 284.695312 0 237.558594 0 187.5 C 0 137.441406 19.484375 90.304688 54.929688 54.929688 C 90.304688 19.484375 137.441406 0 187.5 0 C 237.558594 0 284.695312 19.484375 320.070312 54.929688 C 355.515625 90.378906 375 137.441406 375 187.5 C 375 237.558594 355.515625 284.695312 320.070312 320.070312 C 284.695312 355.515625 237.558594 375 187.5 375 Z M 187.5 11.242188 C 140.4375 11.242188 96.148438 29.601562 62.875 62.875 C 29.601562 96.148438 11.242188 140.4375 11.242188 187.5 C 11.242188 234.5625 29.601562 278.851562 62.875 312.125 C 96.148438 345.398438 140.4375 363.757812 187.5 363.757812 C 234.5625 363.757812 278.851562 345.398438 312.125 312.125 C 345.398438 278.851562 363.757812 234.5625 363.757812 187.5 C 363.757812 140.4375 345.398438 96.148438 312.125 62.875 C 278.851562 29.601562 234.5625 11.242188 187.5 11.242188 Z M 187.5 11.242188 " clip-rule="nonzero"/></clipPath><clipPath id="f504829c15"><path d="M 31.433594 126.332031 L 343.433594 126.332031 L 343.433594 259.832031 L 31.433594 259.832031 Z M 31.433594 126.332031 " clip-rule="nonzero"/></clipPath><clipPath id="12731f8792"><path d="M 55.183594 55.183594 L 319.933594 55.183594 L 319.933594 319.933594 L 55.183594 319.933594 Z M 55.183594 55.183594 " clip-rule="nonzero"/></clipPath></defs><g clip-path="url(#7da338c01e)"><rect x="-37.5" width="450" fill="#ffffff" y="-37.499999" height="449.999989" fill-opacity="1"/></g><g clip-path="url(#f504829c15)"><path fill="#ffffff" d="M 333.90625 229.109375 C 329.949219 242.582031 323.90625 255.363281 316.410156 267.132812 C 310.21875 276.714844 303.179688 285.71875 295.273438 293.90625 C 294.25 295.023438 293.105469 296.027344 292.019531 297.082031 C 290.917969 298.117188 289.84375 299.191406 288.714844 300.203125 L 285.289062 303.183594 L 283.574219 304.675781 L 281.796875 306.089844 L 278.246094 308.925781 C 277.042969 309.84375 275.800781 310.714844 274.582031 311.617188 C 272.175781 313.457031 269.613281 315.078125 267.105469 316.785156 C 266.742188 317.027344 266.363281 317.28125 265.964844 317.550781 C 265.558594 317.792969 265.132812 318.050781 264.691406 318.316406 C 263.804688 318.847656 262.851562 319.414062 261.839844 320.019531 C 259.835938 321.28125 257.464844 322.464844 254.902344 323.828125 C 254.261719 324.15625 253.613281 324.519531 252.933594 324.847656 C 252.25 325.164062 251.550781 325.488281 250.839844 325.820312 C 249.417969 326.476562 247.941406 327.15625 246.421875 327.859375 C 243.304688 329.078125 240.050781 330.542969 236.507812 331.679688 C 222.503906 336.753906 205.03125 339.894531 187.496094 339.964844 C 169.960938 339.894531 152.488281 336.753906 138.488281 331.679688 C 134.941406 330.542969 131.691406 329.078125 128.570312 327.859375 C 127.050781 327.15625 125.578125 326.476562 124.15625 325.820312 C 123.441406 325.488281 122.746094 325.164062 122.058594 324.847656 C 121.378906 324.523438 120.734375 324.15625 120.089844 323.828125 C 117.53125 322.464844 115.160156 321.28125 113.15625 320.023438 C 112.144531 319.414062 111.191406 318.847656 110.304688 318.316406 C 109.863281 318.050781 109.4375 317.796875 109.027344 317.550781 C 108.632812 317.285156 108.253906 317.027344 107.890625 316.785156 C 98.363281 310.542969 89.414062 303.453125 81.28125 295.488281 C 72.699219 286.917969 65.199219 277.316406 58.585938 267.136719 C 51.085938 255.363281 45.046875 242.582031 41.085938 229.109375 C 36.96875 215.679688 35.0625 201.589844 34.941406 187.496094 C 35.0625 173.402344 36.96875 159.3125 41.085938 145.882812 C 45.046875 132.414062 51.085938 119.632812 58.585938 107.859375 C 64.773438 98.28125 71.8125 89.277344 79.722656 81.085938 C 80.746094 79.96875 81.886719 78.96875 82.972656 77.910156 C 84.078125 76.875 85.148438 75.804688 86.277344 74.792969 L 89.707031 71.808594 L 91.417969 70.316406 L 93.199219 68.90625 L 96.75 66.066406 C 97.953125 65.148438 99.191406 64.277344 100.410156 63.378906 C 102.820312 61.535156 105.378906 59.914062 107.890625 58.207031 C 108.25 57.964844 108.632812 57.710938 109.027344 57.445312 C 109.4375 57.199219 109.859375 56.945312 110.304688 56.675781 C 111.1875 56.148438 112.140625 55.578125 113.15625 54.972656 C 115.160156 53.714844 117.53125 52.527344 120.089844 51.167969 C 120.734375 50.835938 121.378906 50.472656 122.058594 50.148438 C 122.746094 49.828125 123.441406 49.503906 124.152344 49.175781 C 125.574219 48.519531 127.050781 47.835938 128.570312 47.132812 C 131.6875 45.914062 134.941406 44.449219 138.488281 43.316406 C 152.488281 38.238281 169.960938 35.101562 187.496094 35.027344 C 205.03125 35.101562 222.503906 38.238281 236.503906 43.316406 C 240.050781 44.449219 243.300781 45.914062 246.421875 47.132812 C 247.941406 47.835938 249.417969 48.519531 250.839844 49.175781 C 251.550781 49.503906 252.25 49.828125 252.933594 50.144531 C 253.613281 50.472656 254.257812 50.835938 254.902344 51.167969 C 257.460938 52.527344 259.835938 53.714844 261.835938 54.972656 C 262.851562 55.578125 263.804688 56.148438 264.6875 56.675781 C 265.128906 56.941406 265.554688 57.199219 265.964844 57.445312 C 266.359375 57.710938 266.742188 57.964844 267.101562 58.207031 C 276.628906 64.449219 285.578125 71.542969 293.710938 79.507812 C 302.292969 88.078125 309.792969 97.679688 316.40625 107.859375 C 323.90625 119.628906 329.949219 132.414062 333.90625 145.882812 C 338.027344 159.3125 339.929688 173.402344 340.050781 187.496094 C 339.929688 201.589844 338.027344 215.679688 333.90625 229.109375 Z M 343.558594 187.394531 L 343.558594 187.378906 C 343.429688 172.992188 341.496094 158.59375 337.300781 144.863281 C 333.269531 131.089844 327.09375 118.019531 319.394531 106.011719 L 315.695312 100.449219 C 315.695312 100.449219 314.625 98.953125 313.019531 96.710938 C 311.476562 94.421875 309.113281 91.597656 306.855469 88.695312 C 304.421875 85.941406 302.089844 83.097656 300.128906 81.15625 C 298.222656 79.167969 296.949219 77.839844 296.949219 77.839844 C 296.949219 77.839844 296.628906 77.511719 296.050781 76.957031 C 295.472656 76.398438 294.644531 75.597656 293.65625 74.644531 C 291.722656 72.671875 288.914062 70.300781 286.164062 67.867188 C 284.75 66.691406 283.296875 65.570312 281.953125 64.488281 C 281.28125 63.953125 280.628906 63.433594 280.011719 62.941406 C 279.371094 62.480469 278.765625 62.042969 278.207031 61.640625 C 275.972656 60.027344 274.480469 58.953125 274.480469 58.953125 C 274.480469 58.953125 274.15625 58.6875 273.632812 58.347656 C 273.109375 58.003906 272.417969 57.539062 271.726562 57.074219 C 270.339844 56.144531 268.953125 55.21875 268.953125 55.21875 C 268.582031 54.96875 268.195312 54.707031 267.792969 54.433594 C 267.375 54.179688 266.9375 53.917969 266.488281 53.644531 C 265.582031 53.097656 264.609375 52.515625 263.574219 51.894531 C 261.523438 50.601562 259.101562 49.382812 256.480469 47.988281 C 255.824219 47.648438 255.164062 47.277344 254.464844 46.941406 C 253.765625 46.613281 253.050781 46.28125 252.328125 45.941406 C 250.871094 45.269531 249.363281 44.570312 247.804688 43.847656 C 244.613281 42.59375 241.289062 41.101562 237.660156 39.929688 C 223.328125 34.726562 205.4375 31.503906 187.496094 31.433594 C 169.554688 31.503906 151.664062 34.726562 137.332031 39.933594 C 133.707031 41.101562 130.375 42.597656 127.1875 43.851562 C 125.628906 44.570312 124.121094 45.269531 122.667969 45.945312 C 121.941406 46.28125 121.226562 46.617188 120.523438 46.941406 C 119.828125 47.277344 119.167969 47.648438 118.511719 47.988281 C 115.890625 49.382812 113.46875 50.601562 111.417969 51.894531 C 110.382812 52.515625 109.410156 53.101562 108.503906 53.644531 C 108.054688 53.917969 107.617188 54.179688 107.203125 54.433594 C 106.796875 54.707031 106.410156 54.96875 106.039062 55.21875 C 106.039062 55.21875 104.652344 56.144531 103.265625 57.074219 C 102.574219 57.539062 101.878906 58.003906 101.363281 58.351562 C 100.835938 58.6875 100.511719 58.953125 100.511719 58.953125 C 100.511719 58.953125 99.023438 60.027344 96.789062 61.640625 C 96.226562 62.042969 95.621094 62.480469 94.984375 62.941406 C 94.363281 63.433594 93.714844 63.953125 93.039062 64.488281 C 91.695312 65.570312 90.242188 66.691406 88.832031 67.867188 C 86.078125 70.300781 83.273438 72.671875 81.339844 74.644531 C 80.347656 75.597656 79.523438 76.398438 78.945312 76.957031 C 78.363281 77.511719 78.042969 77.839844 78.042969 77.839844 C 78.042969 77.839844 76.773438 79.167969 74.867188 81.15625 C 72.902344 83.097656 70.570312 85.941406 68.140625 88.695312 C 65.882812 91.597656 63.515625 94.421875 61.972656 96.710938 C 60.367188 98.957031 59.296875 100.453125 59.296875 100.453125 L 55.597656 106.011719 C 47.898438 118.019531 41.722656 131.09375 37.691406 144.863281 C 33.5 158.59375 31.5625 172.992188 31.4375 187.382812 L 31.433594 187.394531 L 31.433594 187.601562 L 31.4375 187.613281 C 31.5625 202.003906 33.5 216.402344 37.691406 230.128906 C 41.722656 243.902344 47.898438 256.972656 55.597656 268.980469 L 59.296875 274.542969 C 59.296875 274.542969 60.367188 276.039062 61.972656 278.28125 C 63.515625 280.574219 65.882812 283.394531 68.140625 286.296875 C 70.570312 289.050781 72.902344 291.894531 74.867188 293.835938 C 76.773438 295.824219 78.042969 297.152344 78.042969 297.152344 C 78.042969 297.152344 78.363281 297.480469 78.945312 298.039062 C 79.523438 298.59375 80.347656 299.394531 81.339844 300.351562 C 83.273438 302.320312 86.078125 304.691406 88.832031 307.128906 C 90.242188 308.300781 91.695312 309.425781 93.039062 310.503906 C 93.714844 311.042969 94.363281 311.558594 94.984375 312.050781 C 95.621094 312.511719 96.226562 312.949219 96.789062 313.351562 C 99.023438 314.964844 100.511719 316.039062 100.511719 316.039062 C 100.511719 316.039062 100.835938 316.304688 101.363281 316.644531 C 101.882812 316.992188 102.574219 317.453125 103.265625 317.917969 C 104.652344 318.847656 106.039062 319.777344 106.039062 319.777344 C 106.410156 320.023438 106.796875 320.289062 107.203125 320.558594 C 107.621094 320.8125 108.054688 321.078125 108.507812 321.347656 C 109.410156 321.894531 110.386719 322.476562 111.421875 323.101562 C 113.46875 324.390625 115.894531 325.609375 118.511719 327.003906 C 119.167969 327.347656 119.832031 327.71875 120.527344 328.050781 C 121.226562 328.378906 121.941406 328.710938 122.667969 329.050781 C 124.121094 329.726562 125.632812 330.421875 127.1875 331.144531 C 130.378906 332.398438 133.707031 333.894531 137.335938 335.0625 C 151.664062 340.265625 169.554688 343.488281 187.496094 343.5625 C 205.4375 343.488281 223.328125 340.265625 237.660156 335.0625 C 241.289062 333.894531 244.617188 332.398438 247.808594 331.144531 C 249.363281 330.421875 250.871094 329.726562 252.328125 329.050781 C 253.054688 328.710938 253.769531 328.378906 254.46875 328.050781 C 255.164062 327.71875 255.824219 327.347656 256.484375 327.003906 C 259.101562 325.609375 261.527344 324.390625 263.574219 323.101562 C 264.609375 322.476562 265.582031 321.894531 266.488281 321.347656 C 266.9375 321.078125 267.375 320.8125 267.792969 320.558594 C 268.195312 320.285156 268.585938 320.023438 268.953125 319.777344 C 268.953125 319.777344 270.339844 318.847656 271.726562 317.917969 C 272.421875 317.453125 273.113281 316.992188 273.632812 316.644531 C 274.15625 316.304688 274.480469 316.039062 274.480469 316.039062 C 274.480469 316.039062 275.972656 314.964844 278.207031 313.351562 C 278.765625 312.949219 279.371094 312.511719 280.011719 312.050781 C 280.628906 311.558594 281.28125 311.042969 281.953125 310.503906 C 283.296875 309.425781 284.75 308.300781 286.164062 307.128906 C 288.914062 304.691406 291.722656 302.320312 293.65625 300.351562 C 294.644531 299.394531 295.472656 298.59375 296.050781 298.039062 C 296.628906 297.480469 296.949219 297.152344 296.949219 297.152344 C 296.949219 297.152344 298.222656 295.824219 300.128906 293.835938 C 302.089844 291.894531 304.421875 289.050781 306.855469 286.296875 C 309.113281 283.394531 311.476562 280.570312 313.019531 278.28125 C 314.625 276.039062 315.695312 274.542969 315.695312 274.542969 L 319.394531 268.980469 C 327.09375 256.972656 333.269531 243.902344 337.300781 230.128906 C 341.496094 216.398438 343.429688 202 343.558594 187.613281 L 343.558594 187.601562 L 343.5625 187.496094 L 343.558594 187.394531 " fill-opacity="1" fill-rule="nonzero"/></g><path fill="#f2dea2" d="M 187.585938 60.886719 C 121.9375 60.886719 67.730469 110.605469 61.507812 175.179688 C 65.566406 171.902344 69.671875 168.242188 73.949219 164.417969 C 78.28125 160.542969 82.761719 156.542969 87.335938 152.851562 C 92.113281 148.949219 116.4375 147.523438 122.199219 153.066406 C 129.441406 160 136.304688 166.3125 142.605469 171.847656 C 142.691406 171.910156 142.777344 171.964844 142.863281 172.039062 C 166.203125 192.570312 178.785156 200.085938 182.636719 202.160156 C 191.535156 196.867188 204.492188 196.789062 211.898438 204.855469 C 216.671875 203.828125 221.640625 204.484375 226.191406 206.585938 C 225.632812 203.070312 225.867188 199.441406 226.976562 196.085938 C 228.453125 191.613281 232.148438 185.414062 241.351562 181.269531 C 252.101562 176.382812 264.417969 177.761719 273.808594 183.835938 C 267.34375 173.367188 258.511719 168.707031 252.867188 166.714844 C 243.339844 163.296875 234.535156 164.109375 230.03125 166.433594 C 229.316406 166.804688 228.707031 167.207031 228.234375 167.628906 C 229.078125 168.632812 229.753906 169.992188 230.164062 171.621094 C 231.386719 176.421875 229.960938 182.480469 224.015625 185.164062 C 219.617188 187.144531 214.957031 186.535156 211.222656 183.492188 C 206.035156 179.257812 203.84375 171.398438 205.625 163.457031 C 208.308594 151.449219 216.8125 145.265625 223.480469 142.195312 C 234.148438 137.285156 247.621094 136.949219 256.738281 141.25 C 269.792969 137.8125 284.777344 140.339844 297.066406 148.074219 C 302.917969 151.765625 307.800781 156.421875 311.578125 161.808594 C 299.710938 103.804688 248.757812 60.886719 187.585938 60.886719 Z M 250.6875 201.0625 C 249.980469 201.160156 249.308594 201.363281 248.714844 201.632812 C 249.046875 201.828125 249.375 202.046875 249.691406 202.292969 C 252.75 204.664062 254.664062 209.519531 252.050781 214.996094 C 250.429688 218.425781 246.957031 220.804688 242.765625 221.355469 C 241.933594 221.460938 241.105469 221.460938 240.285156 221.417969 C 241.226562 223.683594 241.863281 226.046875 242.164062 228.457031 C 246.96875 228.652344 252.269531 226.132812 256.128906 221.625 C 260.253906 216.796875 261.648438 211.082031 259.878906 206.289062 C 257.734375 202.488281 254.304688 200.519531 250.6875 201.0625 " fill-opacity="1" fill-rule="nonzero"/><path fill="#ffffff" d="M 314.140625 183.617188 C 309.417969 176.898438 299.71875 175.453125 294.4375 176.671875 C 292.933594 177.015625 291.644531 177.488281 290.484375 178.109375 C 286.3125 180.253906 283.851562 184.328125 284.148438 188.519531 C 284.394531 191.941406 286.359375 194.519531 289.539062 195.613281 C 291.382812 196.234375 293.289062 195.152344 294.164062 193.789062 C 294.945312 192.601562 294.847656 191.472656 293.882812 190.441406 C 293.332031 189.847656 293.058594 189.042969 293.132812 188.238281 C 293.203125 187.425781 293.621094 186.691406 294.273438 186.207031 C 297.214844 184.023438 301.253906 184.214844 304.828125 186.6875 C 308.675781 189.355469 311.828125 194.425781 313.4375 201.535156 C 313.945312 196.9375 314.226562 192.289062 314.226562 187.585938 C 314.226562 186.246094 314.191406 184.945312 314.140625 183.617188 Z M 214.832031 179.066406 C 216.265625 180.242188 218.617188 181.351562 221.664062 179.964844 C 223.492188 179.132812 224.554688 177.707031 224.804688 175.714844 C 225.066406 173.640625 224.351562 171.917969 223.910156 171.359375 C 223.210938 171.25 222.574219 170.898438 222.117188 170.335938 C 221.527344 169.621094 221.328125 168.652344 221.578125 167.757812 C 222.304688 165.171875 224.324219 162.957031 227.417969 161.367188 C 234.019531 157.957031 244.269531 157.839844 253.773438 161 C 263.179688 157.816406 282.417969 160.222656 290.316406 171.945312 C 291.214844 171.621094 292.164062 171.335938 293.175781 171.113281 C 297.753906 170.058594 305.316406 170.363281 311.699219 173.933594 C 308.332031 165.398438 302.253906 158.082031 294.03125 152.902344 C 282.742188 145.804688 268.976562 143.601562 257.238281 147.027344 C 256.519531 147.230469 255.753906 147.160156 255.105469 146.804688 C 247.566406 142.800781 235.277344 143.042969 225.867188 147.378906 C 220.367188 149.910156 213.363281 154.96875 211.195312 164.703125 C 209.695312 171.359375 211.941406 176.710938 214.832031 179.066406 Z M 243.703125 186.46875 C 237.902344 189.078125 233.996094 193.015625 232.390625 197.878906 C 230.957031 202.226562 231.429688 207.203125 233.65625 211.179688 C 233.960938 211.671875 234.308594 212.269531 234.722656 212.726562 C 236.636719 214.996094 239.273438 216.074219 242.03125 215.691406 C 244.253906 215.398438 246.121094 214.195312 246.898438 212.546875 C 248.238281 209.742188 247.355469 207.703125 246.191406 206.800781 C 245.582031 206.324219 245.042969 206.28125 244.917969 206.375 C 243.980469 207.167969 242.652344 207.25 241.601562 206.621094 C 240.558594 205.988281 240.035156 204.757812 240.300781 203.558594 C 241.253906 199.320312 245.007812 196.121094 249.871094 195.417969 C 254.617188 194.730469 261.007812 196.539062 264.925781 203.597656 C 264.941406 203.625 264.945312 203.652344 264.964844 203.679688 C 264.964844 203.6875 264.964844 203.6875 264.964844 203.6875 C 265.246094 204.175781 265.519531 204.664062 265.730469 205.148438 C 269.023438 212.324219 268.984375 221.167969 265.609375 229.347656 C 261.761719 238.671875 254.015625 246.148438 243.664062 250.578125 C 244.035156 253.417969 243.929688 256.234375 243.382812 258.949219 C 249.523438 256.652344 256.914062 256.808594 263.476562 259.644531 C 291.480469 238.308594 284.714844 207.921875 280.035156 198.820312 C 273.378906 185.925781 257.078125 180.398438 243.703125 186.46875 Z M 262.742188 265.578125 C 262.660156 265.546875 262.578125 265.523438 262.496094 265.480469 C 254.90625 261.578125 245.230469 262.488281 240.007812 267.601562 L 239.414062 268.238281 C 239.128906 268.722656 238.753906 269.230469 238.3125 269.757812 C 237.296875 271.441406 236.789062 273.4375 236.925781 275.34375 C 237.09375 278.828125 239.054688 281.40625 241.597656 281.542969 C 244.300781 281.558594 245.167969 280.058594 245.472656 279.371094 C 245.871094 278.472656 245.929688 277.230469 245.183594 276.480469 C 244.421875 275.71875 244.15625 274.585938 244.492188 273.558594 C 244.835938 272.535156 245.722656 271.792969 246.792969 271.636719 C 248.851562 271.335938 250.824219 271.515625 252.507812 272.132812 C 252.507812 272.132812 252.515625 272.132812 252.515625 272.132812 C 252.546875 272.144531 252.582031 272.160156 252.613281 272.171875 C 257.097656 273.671875 260.144531 277.988281 260.65625 283.726562 C 260.871094 286.078125 260.621094 288.820312 259.75 291.617188 C 264.785156 288.128906 269.5625 284.265625 274.074219 280.035156 C 271.660156 271.777344 266.671875 267.628906 262.742188 265.578125 Z M 237.675781 249.417969 C 237.136719 247.082031 236.230469 244.820312 234.988281 242.722656 C 234.507812 241.902344 234.464844 240.90625 234.863281 240.046875 C 236.1875 237.253906 236.804688 234.175781 236.648438 231.140625 C 236.5 225.898438 234.253906 220.636719 230.464844 216.644531 C 225.265625 211.066406 218.09375 208.828125 211.699219 210.789062 C 210.554688 211.167969 209.296875 210.738281 208.566406 209.769531 C 203.136719 202.457031 191.476562 202.851562 184.429688 207.777344 C 180.175781 210.71875 177.820312 215.035156 177.777344 219.960938 C 177.753906 222.910156 178.75 225.265625 180.507812 226.410156 C 181.828125 227.257812 183.410156 227.339844 184.984375 226.628906 C 185.691406 226.316406 186.328125 225.375 186.589844 224.277344 C 186.851562 223.199219 186.636719 222.511719 186.535156 222.386719 C 185.179688 221.898438 184.484375 220.527344 184.804688 219.117188 C 185.980469 214.039062 190.441406 210.757812 195.71875 211.109375 C 200.125 211.289062 205.140625 213.886719 207.265625 219.132812 C 212.226562 218.015625 217.625 219.324219 221.996094 222.839844 C 230.695312 229.859375 232.398438 243.484375 225.886719 253.84375 C 222.855469 258.59375 218.507812 262.257812 212.9375 264.742188 C 208.4375 266.730469 203.746094 267.601562 199.027344 267.601562 C 198.035156 267.601562 197.046875 267.558594 196.054688 267.484375 C 203.167969 270.464844 211.015625 272.683594 219.351562 273.320312 L 219.820312 273.320312 C 225.015625 273.320312 230.210938 270.722656 233.71875 266.363281 C 234.105469 265.785156 234.464844 265.269531 234.863281 264.8125 C 237.902344 260.320312 238.902344 254.855469 237.675781 249.417969 Z M 150.230469 264.75 C 149.179688 266.976562 147.835938 268.929688 146.222656 270.570312 C 147.457031 271.632812 148.921875 272.914062 150.589844 274.386719 C 158.882812 281.683594 171.417969 292.71875 184.375 301.289062 L 184.949219 301.683594 C 193.578125 307.4375 201.035156 312.410156 208.425781 312.503906 C 213.65625 311.644531 218.8125 310.433594 223.863281 308.921875 C 214.207031 307.34375 203.523438 302.582031 191.375 294.53125 C 176.648438 284.777344 160.234375 272.441406 150.230469 264.75 Z M 160.351562 243.085938 C 160.371094 243.105469 160.390625 243.121094 160.402344 243.132812 C 160.40625 243.136719 160.414062 243.140625 160.414062 243.140625 C 161.273438 244.003906 162.035156 244.769531 162.847656 245.527344 C 162.847656 245.527344 162.851562 245.527344 162.851562 245.527344 C 162.863281 245.539062 162.875 245.546875 162.882812 245.554688 C 162.882812 245.558594 162.890625 245.558594 162.890625 245.5625 C 162.902344 245.570312 162.90625 245.582031 162.917969 245.585938 C 175.578125 256.945312 194.75 266.542969 210.621094 259.53125 C 215.136719 257.511719 218.652344 254.574219 221.058594 250.800781 C 226.050781 242.855469 224.898438 232.515625 218.417969 227.277344 C 214.09375 223.804688 209.433594 224.011719 206.539062 225.363281 C 203.308594 226.933594 201.617188 229.9375 202.050781 233.378906 C 202.40625 236.230469 203.859375 238.03125 205.957031 238.199219 C 207.363281 238.386719 209.171875 237.542969 209.78125 235.488281 C 210.140625 234.269531 211.261719 233.574219 212.546875 233.449219 C 213.824219 233.46875 214.9375 234.324219 215.269531 235.558594 C 216.429688 239.84375 214.8125 244.425781 210.941406 247.816406 C 206.097656 252.074219 197.144531 254.679688 188.085938 250.914062 C 175.828125 245.789062 167.335938 235.585938 159.847656 226.589844 C 159.070312 225.652344 158.3125 224.75 157.566406 223.863281 C 159.160156 229.6875 159.074219 235.195312 157.222656 239.847656 C 158.257812 240.96875 159.292969 242.066406 160.351562 243.085938 Z M 123.753906 211.617188 C 135.15625 214.5625 142.832031 221.765625 144.800781 231.390625 C 145.113281 232.929688 144.121094 234.445312 142.578125 234.761719 C 142.484375 234.777344 142.386719 234.777344 142.292969 234.789062 C 142.195312 234.796875 142.101562 234.8125 142.003906 234.8125 C 141.992188 234.8125 141.988281 234.808594 141.976562 234.808594 C 141.960938 234.808594 141.945312 234.808594 141.929688 234.804688 C 141.894531 234.808594 141.875 234.8125 141.839844 234.8125 C 140.460938 234.941406 139.898438 236.867188 139.84375 237.101562 C 139.496094 238.761719 139.828125 241.929688 143.273438 243.285156 C 145.097656 243.976562 146.714844 243.453125 147.746094 242.902344 C 149.152344 242.140625 150.414062 240.808594 151.296875 239.164062 C 151.316406 239.121094 151.324219 239.070312 151.34375 239.027344 C 152.765625 236.3125 155.324219 228.703125 148.324219 216.625 C 147.496094 215.199219 146.570312 213.890625 145.566406 212.742188 C 145.558594 212.738281 145.554688 212.726562 145.546875 212.722656 C 145.539062 212.710938 145.527344 212.703125 145.519531 212.695312 C 133.808594 198.707031 108.464844 193.527344 86.582031 200.675781 C 78.140625 203.433594 70.421875 207.804688 63.585938 213.625 C 64.644531 218.703125 66.019531 223.75 67.730469 228.695312 C 84.824219 211.480469 108.3125 207.605469 123.753906 211.617188 Z M 146.785156 249.152344 C 146.207031 249.242188 145.628906 249.304688 145.054688 249.304688 C 143.753906 249.304688 142.46875 249.074219 141.230469 248.605469 C 135.109375 246.207031 133.335938 240.359375 134.257812 235.9375 C 134.613281 234.242188 135.335938 232.828125 136.304688 231.71875 C 127.898438 226.867188 118.371094 225.257812 108.742188 226.890625 C 115.535156 227.96875 121.820312 230.804688 126.863281 235.28125 C 134.347656 241.9375 137.589844 251.214844 135.542969 260.101562 C 135.246094 261.410156 134.015625 262.050781 132.722656 262.3125 C 131.378906 262.296875 130.230469 261.34375 129.964844 260.027344 C 129.71875 258.816406 128.585938 258.332031 127.691406 258.285156 C 127.089844 258.199219 125.070312 258.339844 124.183594 261.082031 C 123.464844 263.277344 124.113281 265.09375 124.777344 266.238281 C 126.476562 269.339844 129.988281 271 133.820312 270.492188 C 136.234375 270.214844 138.359375 269.453125 140.175781 268.222656 C 143.015625 266.300781 145.035156 263.332031 146.164062 259.410156 C 147.007812 256.339844 147.207031 252.832031 146.785156 249.152344 Z M 72.589844 177.53125 C 74.34375 177.835938 75.800781 178.621094 76.917969 179.796875 C 83.390625 174.167969 89.464844 171.871094 93.9375 173.488281 C 94.964844 173.859375 95.859375 174.441406 96.59375 175.1875 C 99.882812 171.109375 103.316406 169.101562 106.996094 169.066406 L 107.082031 169.066406 C 111.371094 169.066406 115.441406 171.804688 119.46875 177.410156 C 121.03125 176.054688 122.90625 175.277344 125.011719 175.160156 C 128.273438 174.996094 131.648438 176.382812 134.765625 178.402344 C 134.789062 177.738281 134.851562 177.089844 135.027344 176.480469 C 135.246094 175.707031 135.648438 174.804688 136.359375 173.9375 C 130.6875 168.882812 124.625 163.289062 118.246094 157.1875 C 115.039062 154.097656 94.03125 154.746094 90.925781 157.277344 C 86.457031 160.890625 82.035156 164.84375 77.75 168.671875 C 74.136719 171.902344 70.640625 175.023438 67.164062 177.917969 C 69.046875 177.421875 70.917969 177.230469 72.589844 177.53125 Z M 130.375 253.046875 C 129.90625 248.113281 127.390625 243.386719 123.070312 239.542969 C 116.464844 233.671875 104.316406 229.230469 89.953125 234.277344 C 84.695312 237.601562 79.878906 241.820312 75.601562 246.820312 C 76.699219 248.890625 77.761719 250.773438 78.8125 252.519531 C 85.355469 245.628906 94.910156 242.832031 102.152344 243.191406 C 109.226562 243.550781 114.847656 246.632812 117.585938 251.648438 C 117.996094 252.394531 118.042969 253.289062 117.730469 254.078125 C 117.40625 254.871094 116.75 255.476562 115.9375 255.730469 C 112.683594 256.761719 112.046875 259.113281 111.949219 260.414062 C 111.785156 262.660156 112.957031 264.847656 114.789062 265.789062 C 114.832031 265.8125 114.875 265.835938 114.921875 265.863281 C 115.964844 266.335938 117.21875 266.410156 118.589844 266.078125 C 117.996094 263.886719 118.027344 261.550781 118.757812 259.3125 C 120.167969 254.984375 123.890625 252.339844 128.015625 252.585938 C 128.839844 252.636719 129.632812 252.792969 130.375 253.046875 " fill-opacity="1" fill-rule="nonzero"/><path fill="#27498c" d="M 301.578125 191.375 C 301.273438 191.167969 300.796875 190.867188 300.238281 190.65625 C 300.667969 192.722656 300.246094 194.910156 298.945312 196.902344 C 298.019531 198.335938 296.761719 199.46875 295.339844 200.25 C 299.042969 204.105469 301.671875 209.789062 302.945312 216.859375 C 304.242188 223.992188 304.0625 232.625 302.078125 241.738281 C 303.347656 239.050781 304.535156 236.304688 305.617188 233.507812 C 305.632812 233.433594 305.644531 233.355469 305.667969 233.285156 C 313.101562 207.539062 306.238281 194.613281 301.578125 191.375 Z M 263.414062 165.464844 C 268.859375 168.800781 274.828125 174.039062 279.496094 182.167969 C 280.628906 179.246094 282.621094 176.632812 285.277344 174.664062 C 280.535156 168.078125 270.933594 165.589844 263.414062 165.464844 Z M 250.691406 281.667969 C 249.109375 285.292969 245.527344 287.378906 241.3125 287.242188 C 236.691406 286.984375 232.996094 283.566406 231.710938 278.738281 C 229.136719 279.039062 226.628906 279.1875 224.15625 279.1875 C 222.664062 279.1875 221.183594 279.132812 219.703125 279.027344 L 219.1875 279.027344 C 219.183594 279.027344 219.171875 279.023438 219.164062 279.023438 C 219.101562 279.023438 219.035156 279.023438 218.976562 279.023438 C 218.964844 279.023438 218.964844 279.015625 218.957031 279.015625 C 218.550781 279.011719 218.109375 278.988281 217.722656 278.914062 C 217.679688 278.910156 217.648438 278.886719 217.601562 278.875 C 210.292969 278.179688 203.359375 276.40625 196.953125 273.988281 C 209.125 282.886719 222.027344 290.257812 233.398438 291.890625 C 241.964844 293.140625 248.019531 291.160156 250.386719 286.300781 C 251.359375 284.3125 251.519531 282.113281 251.171875 280.265625 C 251.046875 280.738281 250.898438 281.207031 250.691406 281.667969 Z M 206.722656 243.914062 C 206.316406 243.9375 205.902344 243.921875 205.476562 243.882812 C 201.800781 243.578125 197.226562 240.824219 196.390625 234.078125 C 195.75 228.945312 197.90625 224.253906 202.097656 221.371094 C 200.984375 218.472656 198.046875 216.914062 195.488281 216.808594 C 194.617188 216.734375 192.273438 216.863281 191.007812 218.832031 C 191.859375 219.910156 192.359375 221.34375 192.414062 222.988281 C 192.523438 226.230469 190.800781 230.308594 187.300781 231.84375 C 183.976562 233.34375 180.351562 233.109375 177.394531 231.195312 C 173.976562 228.96875 172.027344 224.847656 172.074219 219.90625 C 172.117188 214.554688 174.136719 209.75 177.789062 205.984375 C 172.191406 202.707031 160.300781 194.828125 140.664062 177.691406 C 140.574219 177.832031 140.535156 177.957031 140.511719 178.039062 C 140.136719 179.351562 141.074219 182.644531 144.9375 187.597656 C 145.339844 188.035156 145.871094 188.679688 146.402344 189.320312 C 147.40625 190.539062 147.242188 192.359375 146.027344 193.355469 C 145.492188 193.800781 144.847656 194.019531 144.203125 194.019531 C 143.394531 194.019531 142.585938 193.671875 142.03125 192.988281 L 141.992188 192.945312 C 141.515625 192.363281 141.042969 191.785156 140.5625 191.253906 C 140.558594 191.242188 140.550781 191.238281 140.546875 191.226562 C 140.539062 191.226562 140.535156 191.222656 140.535156 191.214844 C 134.808594 184.613281 129.011719 180.617188 125.339844 180.851562 C 124.234375 180.917969 123.363281 181.414062 122.605469 182.363281 C 123.335938 183.640625 124.042969 184.957031 124.71875 186.339844 C 125.410156 187.753906 124.828125 189.457031 123.40625 190.148438 C 122.007812 190.835938 120.28125 190.253906 119.589844 188.832031 C 118.5625 186.726562 117.46875 184.75 116.324219 182.957031 C 112.960938 177.597656 109.765625 174.773438 107.078125 174.773438 L 107.042969 174.773438 C 104.46875 174.792969 101.523438 177.429688 98.527344 182.386719 C 97.890625 183.449219 96.664062 183.988281 95.441406 183.691406 C 94.238281 183.40625 93.347656 182.386719 93.242188 181.15625 C 93.078125 179.246094 92.25 178.945312 91.976562 178.84375 C 89.816406 178.054688 84.601562 180.03125 78.300781 186.300781 C 75.800781 188.746094 73.257812 191.75 70.734375 195.242188 C 70.171875 196.015625 69.300781 196.425781 68.421875 196.425781 C 67.839844 196.425781 67.253906 196.253906 66.75 195.886719 C 65.46875 194.964844 65.183594 193.179688 66.105469 191.902344 C 68.339844 188.820312 70.585938 186.097656 72.824219 183.753906 C 72.492188 183.394531 72.082031 183.230469 71.605469 183.148438 C 68.546875 182.632812 63.046875 185.484375 60.890625 187.765625 C 60.902344 194.394531 61.421875 200.910156 62.410156 207.222656 C 68.980469 202.089844 76.257812 198.15625 84.117188 195.5 C 87.347656 192.117188 89.8125 187.8125 89.839844 187.769531 C 90.613281 186.398438 92.351562 185.925781 93.726562 186.699219 C 95.097656 187.480469 95.574219 189.21875 94.796875 190.589844 C 94.75 190.683594 94.175781 191.667969 93.246094 193.078125 C 114.929688 188.835938 137.4375 194.753906 149.390625 208.453125 C 154.46875 211.222656 159.003906 216.65625 164.234375 222.9375 C 171.304688 231.433594 179.316406 241.070312 190.28125 245.652344 C 196.777344 248.351562 203.109375 246.757812 206.722656 243.914062 Z M 155.839844 200.679688 C 155.28125 201.410156 154.4375 201.792969 153.585938 201.792969 C 152.972656 201.792969 152.363281 201.59375 151.839844 201.191406 C 150.925781 200.484375 150.425781 199.980469 150.425781 199.980469 C 149.324219 198.863281 149.332031 197.054688 150.445312 195.945312 C 151.558594 194.847656 153.347656 194.847656 154.449219 195.933594 C 154.507812 195.984375 154.8125 196.28125 155.328125 196.679688 C 156.574219 197.644531 156.804688 199.441406 155.839844 200.679688 Z M 112.253906 270.902344 C 108.820312 268.953125 105.503906 267.460938 102.292969 266.421875 C 111.523438 272.742188 120.183594 282.742188 127.75 291.488281 C 132.34375 296.800781 136.679688 301.800781 140.398438 305.136719 C 148.140625 308.242188 156.101562 310.550781 164.230469 312.0625 C 156.675781 307.714844 148.769531 301.460938 140.023438 293 C 129.105469 282.460938 120.277344 275.4375 112.253906 270.902344 Z M 106.253906 260.003906 C 106.496094 256.695312 108.09375 253.898438 110.691406 252.035156 C 108.613281 250.191406 105.542969 249.074219 101.867188 248.894531 C 95.542969 248.5625 87.226562 251.160156 81.988281 257.535156 C 82.507812 258.324219 83.03125 259.097656 83.566406 259.851562 C 90.824219 258.144531 98.320312 258.769531 106.265625 261.769531 C 106.222656 261.1875 106.21875 260.597656 106.253906 260.003906 " fill-opacity="1" fill-rule="nonzero"/><path fill="#0477bf" d="M 297.339844 217.871094 C 295.84375 209.609375 292.191406 203.59375 287.316406 201.363281 C 287.269531 201.34375 287.226562 201.328125 287.183594 201.308594 C 291.597656 214.761719 293.914062 242.226562 268.816406 262.710938 C 273.105469 265.855469 276.414062 270.242188 278.511719 275.542969 C 295.351562 256.53125 300.132812 233.328125 297.339844 217.871094 Z M 242.667969 234.175781 C 242.53125 234.175781 242.398438 234.15625 242.261719 234.15625 C 242.054688 236.519531 241.519531 238.871094 240.621094 241.113281 C 241.273438 242.347656 241.824219 243.625 242.292969 244.9375 C 250.816406 241.0625 257.175781 234.839844 260.335938 227.171875 C 260.734375 226.199219 261.066406 225.21875 261.355469 224.234375 C 261.066406 224.601562 260.773438 224.972656 260.460938 225.332031 C 255.667969 230.9375 249 234.175781 242.667969 234.175781 Z M 238.097656 297.953125 C 236.414062 297.960938 234.582031 297.828125 232.582031 297.539062 C 216.171875 295.183594 195.601562 282.386719 167.855469 257.277344 C 167.761719 257.207031 167.703125 257.152344 167.625 257.085938 C 164.769531 254.882812 161.949219 252.484375 159.003906 249.738281 C 158.992188 249.726562 158.980469 249.71875 158.972656 249.707031 C 158.144531 248.9375 157.371094 248.167969 156.597656 247.394531 C 156.488281 247.304688 156.390625 247.203125 156.292969 247.09375 C 155.574219 246.398438 154.863281 245.667969 154.160156 244.925781 C 153.554688 245.601562 152.917969 246.238281 152.222656 246.777344 C 152.894531 251.050781 152.863281 255.214844 152.113281 259.003906 C 161.828125 266.5 179.132812 279.574219 194.53125 289.773438 C 214.734375 303.171875 230.214844 306.835938 243.234375 301.332031 C 243.265625 301.316406 243.453125 301.230469 243.617188 301.160156 C 244.128906 300.902344 244.644531 300.644531 245.15625 300.359375 C 245.277344 300.285156 245.40625 300.21875 245.539062 300.148438 C 245.554688 300.140625 245.5625 300.136719 245.574219 300.125 C 249.746094 297.898438 252.28125 294.785156 253.664062 291.644531 C 251.234375 294.601562 246.609375 297.953125 238.097656 297.953125 Z M 181.210938 306.042969 C 167.945312 297.257812 154.726562 285.621094 146.816406 278.667969 C 144.675781 276.78125 142.886719 275.207031 141.507812 274.046875 C 139.382812 275.152344 137.039062 275.867188 134.511719 276.160156 C 133.820312 276.246094 133.136719 276.289062 132.464844 276.289062 C 131.457031 276.289062 130.476562 276.164062 129.519531 275.980469 C 133.980469 279.589844 138.761719 283.855469 143.984375 288.902344 C 162.09375 306.40625 176.101562 313.96875 190.816406 314.167969 L 190.835938 314.167969 C 191.820312 314.15625 192.734375 314.109375 193.582031 314.058594 L 193.582031 314.070312 C 193.785156 314.066406 193.96875 314.058594 194.132812 314.058594 C 190.050781 311.9375 185.972656 309.222656 181.789062 306.429688 Z M 135.625 224.96875 C 132.675781 221.332031 128.152344 218.644531 122.328125 217.140625 C 107.464844 213.304688 84.960938 218.175781 69.960938 234.6875 C 70.832031 236.886719 71.796875 239.101562 72.84375 241.328125 C 77.152344 236.605469 81.925781 232.570312 87.101562 229.324219 C 87.132812 229.300781 87.171875 229.289062 87.203125 229.269531 C 87.210938 229.269531 87.210938 229.261719 87.214844 229.261719 C 87.238281 229.25 87.253906 229.242188 87.273438 229.230469 C 87.285156 229.222656 87.292969 229.214844 87.300781 229.207031 C 87.3125 229.195312 87.328125 229.195312 87.339844 229.191406 C 102.996094 219.441406 120.753906 218.070312 135.625 224.96875 Z M 88.28125 266.15625 C 98.710938 279.320312 111.550781 290.21875 126.101562 298.292969 C 125.222656 297.285156 124.335938 296.265625 123.4375 295.226562 C 113.003906 283.164062 100.414062 268.582031 88.28125 266.15625 " fill-opacity="1" fill-rule="nonzero"/><g clip-path="url(#12731f8792)"><path fill="#112140" d="M 319.933594 187.585938 C 319.933594 186.109375 319.890625 184.667969 319.835938 183.199219 C 319.855469 183.066406 319.878906 182.9375 319.878906 182.796875 C 319.878906 182.625 319.847656 182.453125 319.8125 182.285156 C 316.992188 111.007812 258.917969 55.183594 187.585938 55.183594 C 116.789062 55.183594 58.703125 110.523438 55.363281 181.117188 C 55.238281 182.953125 55.183594 184.839844 55.183594 186.671875 L 55.183594 187.585938 C 55.183594 196.316406 56.011719 204.886719 57.625 213.054688 C 59.0625 220.515625 61.203125 227.933594 63.980469 235.082031 C 65.5625 239.257812 67.46875 243.519531 69.644531 247.761719 C 69.652344 247.773438 69.65625 247.785156 69.660156 247.796875 C 71.925781 252.171875 73.976562 255.726562 76.085938 258.910156 C 77.324219 260.917969 78.691406 262.925781 80.074219 264.777344 C 94.699219 285.113281 114.644531 300.816406 137.738281 310.191406 L 137.742188 310.183594 C 137.765625 310.191406 137.792969 310.207031 137.8125 310.21875 L 137.796875 310.253906 C 153.652344 316.671875 170.40625 319.933594 187.585938 319.933594 C 188.726562 319.933594 189.800781 319.933594 190.78125 319.871094 C 191.824219 319.871094 192.929688 319.863281 193.6875 319.765625 C 193.730469 319.765625 193.773438 319.765625 193.816406 319.757812 C 194.371094 319.757812 194.964844 319.746094 195.53125 319.691406 L 195.53125 319.699219 C 200.484375 319.382812 204.925781 318.882812 209.097656 318.179688 C 209.125 318.175781 209.148438 318.167969 209.183594 318.164062 C 209.199219 318.160156 209.214844 318.160156 209.230469 318.152344 C 221.832031 316.09375 234.023438 312.199219 245.476562 306.570312 C 245.640625 306.503906 245.972656 306.378906 246.125 306.285156 C 246.128906 306.28125 246.128906 306.28125 246.136719 306.28125 L 246.136719 306.277344 L 247.546875 305.605469 C 247.773438 305.492188 248.140625 305.3125 248.535156 305.011719 C 259.699219 299.277344 270.03125 291.882812 279.242188 283.023438 L 279.230469 283.019531 C 279.457031 282.855469 279.679688 282.667969 279.734375 282.527344 C 293.566406 269.15625 304.089844 253.292969 311.011719 235.398438 L 311.007812 235.390625 C 311.078125 235.210938 311.136719 235.015625 311.175781 234.8125 C 316.976562 219.867188 319.933594 203.984375 319.933594 187.585938 Z M 249.691406 202.292969 C 249.375 202.046875 249.046875 201.828125 248.714844 201.632812 C 249.308594 201.363281 249.980469 201.160156 250.6875 201.0625 C 254.304688 200.519531 257.734375 202.488281 259.878906 206.289062 C 261.648438 211.082031 260.253906 216.796875 256.128906 221.625 C 252.269531 226.132812 246.96875 228.652344 242.164062 228.457031 C 241.863281 226.046875 241.226562 223.683594 240.285156 221.417969 C 241.105469 221.460938 241.933594 221.460938 242.765625 221.355469 C 246.957031 220.804688 250.429688 218.425781 252.050781 214.996094 C 254.664062 209.519531 252.75 204.664062 249.691406 202.292969 Z M 242.261719 234.15625 C 242.398438 234.15625 242.53125 234.175781 242.667969 234.175781 C 249 234.175781 255.667969 230.9375 260.460938 225.332031 C 260.773438 224.972656 261.066406 224.601562 261.355469 224.234375 C 261.066406 225.21875 260.734375 226.199219 260.335938 227.171875 C 257.175781 234.839844 250.816406 241.0625 242.292969 244.9375 C 241.824219 243.625 241.273438 242.347656 240.621094 241.113281 C 241.519531 238.871094 242.054688 236.519531 242.261719 234.15625 Z M 243.664062 250.578125 C 254.015625 246.148438 261.761719 238.671875 265.609375 229.347656 C 268.984375 221.167969 269.023438 212.324219 265.730469 205.148438 C 265.519531 204.664062 265.246094 204.175781 264.964844 203.6875 C 264.964844 203.6875 264.964844 203.6875 264.964844 203.679688 C 264.945312 203.652344 264.941406 203.625 264.925781 203.597656 C 261.007812 196.539062 254.617188 194.730469 249.871094 195.417969 C 245.007812 196.121094 241.253906 199.320312 240.300781 203.558594 C 240.035156 204.757812 240.558594 205.988281 241.601562 206.621094 C 242.652344 207.25 243.980469 207.167969 244.917969 206.375 C 245.042969 206.28125 245.582031 206.324219 246.191406 206.800781 C 247.355469 207.703125 248.238281 209.742188 246.898438 212.546875 C 246.121094 214.195312 244.253906 215.398438 242.03125 215.691406 C 239.273438 216.074219 236.636719 214.996094 234.722656 212.726562 C 234.308594 212.269531 233.960938 211.671875 233.65625 211.179688 C 231.429688 207.203125 230.957031 202.226562 232.390625 197.878906 C 233.996094 193.015625 237.902344 189.078125 243.703125 186.46875 C 257.078125 180.398438 273.378906 185.925781 280.035156 198.820312 C 284.714844 207.921875 291.480469 238.308594 263.476562 259.644531 C 256.914062 256.808594 249.523438 256.652344 243.382812 258.949219 C 243.929688 256.234375 244.035156 253.417969 243.664062 250.578125 Z M 234.863281 264.8125 C 234.464844 265.269531 234.105469 265.785156 233.71875 266.363281 C 230.210938 270.722656 225.015625 273.320312 219.820312 273.320312 L 219.351562 273.320312 C 211.015625 272.683594 203.167969 270.464844 196.054688 267.484375 C 197.046875 267.558594 198.035156 267.601562 199.027344 267.601562 C 203.746094 267.601562 208.4375 266.730469 212.9375 264.742188 C 218.507812 262.257812 222.855469 258.59375 225.886719 253.84375 C 232.398438 243.484375 230.695312 229.859375 221.996094 222.839844 C 217.625 219.324219 212.226562 218.015625 207.265625 219.132812 C 205.140625 213.886719 200.125 211.289062 195.71875 211.109375 C 190.441406 210.757812 185.980469 214.039062 184.804688 219.117188 C 184.484375 220.527344 185.179688 221.898438 186.535156 222.386719 C 186.636719 222.511719 186.851562 223.199219 186.589844 224.277344 C 186.328125 225.375 185.691406 226.316406 184.984375 226.628906 C 183.410156 227.339844 181.828125 227.257812 180.507812 226.410156 C 178.75 225.265625 177.753906 222.910156 177.777344 219.960938 C 177.820312 215.035156 180.175781 210.71875 184.429688 207.777344 C 191.476562 202.851562 203.136719 202.457031 208.566406 209.769531 C 209.296875 210.738281 210.554688 211.167969 211.699219 210.789062 C 218.09375 208.828125 225.265625 211.066406 230.464844 216.644531 C 234.253906 220.636719 236.5 225.898438 236.648438 231.140625 C 236.804688 234.175781 236.1875 237.253906 234.863281 240.046875 C 234.464844 240.90625 234.507812 241.902344 234.988281 242.722656 C 236.230469 244.820312 237.136719 247.082031 237.675781 249.417969 C 238.902344 254.855469 237.902344 260.320312 234.863281 264.8125 Z M 241.3125 287.242188 C 245.527344 287.378906 249.109375 285.292969 250.691406 281.667969 C 250.898438 281.207031 251.046875 280.738281 251.171875 280.265625 C 251.519531 282.113281 251.359375 284.3125 250.386719 286.300781 C 248.019531 291.160156 241.964844 293.140625 233.398438 291.890625 C 222.027344 290.257812 209.125 282.886719 196.953125 273.988281 C 203.359375 276.40625 210.292969 278.179688 217.601562 278.875 C 217.648438 278.886719 217.679688 278.910156 217.722656 278.914062 C 218.109375 278.988281 218.550781 279.011719 218.957031 279.015625 C 218.964844 279.015625 218.964844 279.023438 218.976562 279.023438 C 219.035156 279.023438 219.101562 279.023438 219.164062 279.023438 C 219.171875 279.023438 219.183594 279.027344 219.1875 279.027344 L 219.703125 279.027344 C 221.183594 279.132812 222.664062 279.1875 224.15625 279.1875 C 226.628906 279.1875 229.136719 279.039062 231.710938 278.738281 C 232.996094 283.566406 236.691406 286.984375 241.3125 287.242188 Z M 157.566406 223.863281 C 158.3125 224.75 159.070312 225.652344 159.847656 226.589844 C 167.335938 235.585938 175.828125 245.789062 188.085938 250.914062 C 197.144531 254.679688 206.097656 252.074219 210.941406 247.816406 C 214.8125 244.425781 216.429688 239.84375 215.269531 235.558594 C 214.9375 234.324219 213.824219 233.46875 212.546875 233.449219 C 211.261719 233.574219 210.140625 234.269531 209.78125 235.488281 C 209.171875 237.542969 207.363281 238.386719 205.957031 238.199219 C 203.859375 238.03125 202.40625 236.230469 202.050781 233.378906 C 201.617188 229.9375 203.308594 226.933594 206.539062 225.363281 C 209.433594 224.011719 214.09375 223.804688 218.417969 227.277344 C 224.898438 232.515625 226.050781 242.855469 221.058594 250.800781 C 218.652344 254.574219 215.136719 257.511719 210.621094 259.53125 C 194.75 266.542969 175.578125 256.945312 162.917969 245.585938 C 162.90625 245.582031 162.902344 245.570312 162.890625 245.5625 C 162.890625 245.558594 162.882812 245.558594 162.882812 245.554688 C 162.875 245.546875 162.863281 245.539062 162.851562 245.527344 C 162.851562 245.527344 162.847656 245.527344 162.847656 245.527344 C 162.035156 244.769531 161.273438 244.003906 160.414062 243.140625 C 160.414062 243.140625 160.40625 243.136719 160.402344 243.132812 C 160.390625 243.121094 160.371094 243.105469 160.351562 243.085938 C 159.292969 242.066406 158.257812 240.96875 157.222656 239.847656 C 159.074219 235.195312 159.160156 229.6875 157.566406 223.863281 Z M 279.496094 182.167969 C 274.828125 174.039062 268.859375 168.800781 263.414062 165.464844 C 270.933594 165.589844 280.535156 168.078125 285.277344 174.664062 C 282.621094 176.632812 280.628906 179.246094 279.496094 182.167969 Z M 253.773438 161 C 244.269531 157.839844 234.019531 157.957031 227.417969 161.367188 C 224.324219 162.957031 222.304688 165.171875 221.578125 167.757812 C 221.328125 168.652344 221.527344 169.621094 222.117188 170.335938 C 222.574219 170.898438 223.210938 171.25 223.910156 171.359375 C 224.351562 171.917969 225.066406 173.640625 224.804688 175.714844 C 224.554688 177.707031 223.492188 179.132812 221.664062 179.964844 C 218.617188 181.351562 216.265625 180.242188 214.832031 179.066406 C 211.941406 176.710938 209.695312 171.359375 211.195312 164.703125 C 213.363281 154.96875 220.367188 149.910156 225.867188 147.378906 C 235.277344 143.042969 247.566406 142.800781 255.105469 146.804688 C 255.753906 147.160156 256.519531 147.230469 257.238281 147.027344 C 268.976562 143.601562 282.742188 145.804688 294.03125 152.902344 C 302.253906 158.082031 308.332031 165.398438 311.699219 173.933594 C 305.316406 170.363281 297.753906 170.058594 293.175781 171.113281 C 292.164062 171.335938 291.214844 171.621094 290.316406 171.945312 C 282.417969 160.222656 263.179688 157.816406 253.773438 161 Z M 187.585938 60.886719 C 248.757812 60.886719 299.710938 103.804688 311.578125 161.808594 C 307.800781 156.421875 302.917969 151.765625 297.066406 148.074219 C 284.777344 140.339844 269.792969 137.8125 256.738281 141.25 C 247.621094 136.949219 234.148438 137.285156 223.480469 142.195312 C 216.8125 145.265625 208.308594 151.449219 205.625 163.457031 C 203.84375 171.398438 206.035156 179.257812 211.222656 183.492188 C 214.957031 186.535156 219.617188 187.144531 224.015625 185.164062 C 229.960938 182.480469 231.386719 176.421875 230.164062 171.621094 C 229.753906 169.992188 229.078125 168.632812 228.234375 167.628906 C 228.707031 167.207031 229.316406 166.804688 230.03125 166.433594 C 234.535156 164.109375 243.339844 163.296875 252.867188 166.714844 C 258.511719 168.707031 267.34375 173.367188 273.808594 183.835938 C 264.417969 177.761719 252.101562 176.382812 241.351562 181.269531 C 232.148438 185.414062 228.453125 191.613281 226.976562 196.085938 C 225.867188 199.441406 225.632812 203.070312 226.191406 206.585938 C 221.640625 204.484375 216.671875 203.828125 211.898438 204.855469 C 204.492188 196.789062 191.535156 196.867188 182.636719 202.160156 C 178.785156 200.085938 166.203125 192.570312 142.863281 172.039062 C 142.777344 171.964844 142.691406 171.910156 142.605469 171.847656 C 136.304688 166.3125 129.441406 160 122.199219 153.066406 C 116.4375 147.523438 92.113281 148.949219 87.335938 152.851562 C 82.761719 156.542969 78.28125 160.542969 73.949219 164.417969 C 69.671875 168.242188 65.566406 171.902344 61.507812 175.179688 C 67.730469 110.605469 121.9375 60.886719 187.585938 60.886719 Z M 136.359375 173.9375 C 135.648438 174.804688 135.246094 175.707031 135.027344 176.480469 C 134.851562 177.089844 134.789062 177.738281 134.765625 178.402344 C 131.648438 176.382812 128.273438 174.996094 125.011719 175.160156 C 122.90625 175.277344 121.03125 176.054688 119.46875 177.410156 C 115.441406 171.804688 111.371094 169.066406 107.082031 169.066406 L 106.996094 169.066406 C 103.316406 169.101562 99.882812 171.109375 96.59375 175.1875 C 95.859375 174.441406 94.964844 173.859375 93.9375 173.488281 C 89.464844 171.871094 83.390625 174.167969 76.917969 179.796875 C 75.800781 178.621094 74.34375 177.835938 72.589844 177.53125 C 70.917969 177.230469 69.046875 177.421875 67.164062 177.917969 C 70.640625 175.023438 74.136719 171.902344 77.75 168.671875 C 82.035156 164.84375 86.457031 160.890625 90.925781 157.277344 C 94.03125 154.746094 115.039062 154.097656 118.246094 157.1875 C 124.625 163.289062 130.6875 168.882812 136.359375 173.9375 Z M 60.890625 187.765625 C 63.046875 185.484375 68.546875 182.632812 71.605469 183.148438 C 72.082031 183.230469 72.492188 183.394531 72.824219 183.753906 C 70.585938 186.097656 68.339844 188.820312 66.105469 191.902344 C 65.183594 193.179688 65.46875 194.964844 66.75 195.886719 C 67.253906 196.253906 67.839844 196.425781 68.421875 196.425781 C 69.300781 196.425781 70.171875 196.015625 70.734375 195.242188 C 73.257812 191.75 75.800781 188.746094 78.300781 186.300781 C 84.601562 180.03125 89.816406 178.054688 91.976562 178.84375 C 92.25 178.945312 93.078125 179.246094 93.242188 181.15625 C 93.347656 182.386719 94.238281 183.40625 95.441406 183.691406 C 96.664062 183.988281 97.890625 183.449219 98.527344 182.386719 C 101.523438 177.429688 104.46875 174.792969 107.042969 174.773438 L 107.078125 174.773438 C 109.765625 174.773438 112.960938 177.597656 116.324219 182.957031 C 117.46875 184.75 118.5625 186.726562 119.589844 188.832031 C 120.28125 190.253906 122.007812 190.835938 123.40625 190.148438 C 124.828125 189.457031 125.410156 187.753906 124.71875 186.339844 C 124.042969 184.957031 123.335938 183.640625 122.605469 182.363281 C 123.363281 181.414062 124.234375 180.917969 125.339844 180.851562 C 129.011719 180.617188 134.808594 184.613281 140.535156 191.214844 C 140.535156 191.222656 140.539062 191.226562 140.546875 191.226562 C 140.550781 191.238281 140.558594 191.242188 140.5625 191.253906 C 141.042969 191.785156 141.515625 192.363281 141.992188 192.945312 L 142.03125 192.988281 C 142.585938 193.671875 143.394531 194.019531 144.203125 194.019531 C 144.847656 194.019531 145.492188 193.800781 146.027344 193.355469 C 147.242188 192.359375 147.40625 190.539062 146.402344 189.320312 C 145.871094 188.679688 145.339844 188.035156 144.9375 187.597656 C 141.074219 182.644531 140.136719 179.351562 140.511719 178.039062 C 140.535156 177.957031 140.574219 177.832031 140.664062 177.691406 C 160.300781 194.828125 172.191406 202.707031 177.789062 205.984375 C 174.136719 209.75 172.117188 214.554688 172.074219 219.90625 C 172.027344 224.847656 173.976562 228.96875 177.394531 231.195312 C 180.351562 233.109375 183.976562 233.34375 187.300781 231.84375 C 190.800781 230.308594 192.523438 226.230469 192.414062 222.988281 C 192.359375 221.34375 191.859375 219.910156 191.007812 218.832031 C 192.273438 216.863281 194.617188 216.734375 195.488281 216.808594 C 198.046875 216.914062 200.984375 218.472656 202.097656 221.371094 C 197.90625 224.253906 195.75 228.945312 196.390625 234.078125 C 197.226562 240.824219 201.800781 243.578125 205.476562 243.882812 C 205.902344 243.921875 206.316406 243.9375 206.722656 243.914062 C 203.109375 246.757812 196.777344 248.351562 190.28125 245.652344 C 179.316406 241.070312 171.304688 231.433594 164.234375 222.9375 C 159.003906 216.65625 154.46875 211.222656 149.390625 208.453125 C 137.4375 194.753906 114.929688 188.835938 93.246094 193.078125 C 94.175781 191.667969 94.75 190.683594 94.796875 190.589844 C 95.574219 189.21875 95.097656 187.480469 93.726562 186.699219 C 92.351562 185.925781 90.613281 186.398438 89.839844 187.769531 C 89.8125 187.8125 87.347656 192.117188 84.117188 195.5 C 76.257812 198.15625 68.980469 202.089844 62.410156 207.222656 C 61.421875 200.910156 60.902344 194.394531 60.890625 187.765625 Z M 67.730469 228.695312 C 66.019531 223.75 64.644531 218.703125 63.585938 213.625 C 70.421875 207.804688 78.140625 203.433594 86.582031 200.675781 C 108.464844 193.527344 133.808594 198.707031 145.519531 212.695312 C 145.527344 212.703125 145.539062 212.710938 145.546875 212.722656 C 145.554688 212.726562 145.558594 212.738281 145.566406 212.742188 C 146.570312 213.890625 147.496094 215.199219 148.324219 216.625 C 155.324219 228.703125 152.765625 236.3125 151.34375 239.027344 C 151.324219 239.070312 151.316406 239.121094 151.296875 239.164062 C 150.414062 240.808594 149.152344 242.140625 147.746094 242.902344 C 146.714844 243.453125 145.097656 243.976562 143.273438 243.285156 C 139.828125 241.929688 139.496094 238.761719 139.84375 237.101562 C 139.898438 236.867188 140.460938 234.941406 141.839844 234.8125 C 141.875 234.8125 141.894531 234.808594 141.929688 234.804688 C 141.945312 234.808594 141.960938 234.808594 141.976562 234.808594 C 141.988281 234.808594 141.992188 234.8125 142.003906 234.8125 C 142.101562 234.8125 142.195312 234.796875 142.292969 234.789062 C 142.386719 234.777344 142.484375 234.777344 142.578125 234.761719 C 144.121094 234.445312 145.113281 232.929688 144.800781 231.390625 C 142.832031 221.765625 135.15625 214.5625 123.753906 211.617188 C 108.3125 207.605469 84.824219 211.480469 67.730469 228.695312 Z M 126.863281 235.28125 C 121.820312 230.804688 115.535156 227.96875 108.742188 226.890625 C 118.371094 225.257812 127.898438 226.867188 136.304688 231.71875 C 135.335938 232.828125 134.613281 234.242188 134.257812 235.9375 C 133.335938 240.359375 135.109375 246.207031 141.230469 248.605469 C 142.46875 249.074219 143.753906 249.304688 145.054688 249.304688 C 145.628906 249.304688 146.207031 249.242188 146.785156 249.152344 C 147.207031 252.832031 147.007812 256.339844 146.164062 259.410156 C 145.035156 263.332031 143.015625 266.300781 140.175781 268.222656 C 138.359375 269.453125 136.234375 270.214844 133.820312 270.492188 C 129.988281 271 126.476562 269.339844 124.777344 266.238281 C 124.113281 265.09375 123.464844 263.277344 124.183594 261.082031 C 125.070312 258.339844 127.089844 258.199219 127.691406 258.285156 C 128.585938 258.332031 129.71875 258.816406 129.964844 260.027344 C 130.230469 261.34375 131.378906 262.296875 132.722656 262.3125 C 134.015625 262.050781 135.246094 261.410156 135.542969 260.101562 C 137.589844 251.214844 134.347656 241.9375 126.863281 235.28125 Z M 69.960938 234.6875 C 84.960938 218.175781 107.464844 213.304688 122.328125 217.140625 C 128.152344 218.644531 132.675781 221.332031 135.625 224.96875 C 120.753906 218.070312 102.996094 219.441406 87.339844 229.191406 C 87.328125 229.195312 87.3125 229.195312 87.300781 229.207031 C 87.292969 229.214844 87.285156 229.222656 87.273438 229.230469 C 87.253906 229.242188 87.238281 229.25 87.214844 229.261719 C 87.210938 229.261719 87.210938 229.269531 87.203125 229.269531 C 87.171875 229.289062 87.132812 229.300781 87.101562 229.324219 C 81.925781 232.570312 77.152344 236.605469 72.84375 241.328125 C 71.796875 239.101562 70.832031 236.886719 69.960938 234.6875 Z M 78.8125 252.519531 C 77.761719 250.773438 76.699219 248.890625 75.601562 246.820312 C 79.878906 241.820312 84.695312 237.601562 89.953125 234.277344 C 104.316406 229.230469 116.464844 233.671875 123.070312 239.542969 C 127.390625 243.386719 129.90625 248.113281 130.375 253.046875 C 129.632812 252.792969 128.839844 252.636719 128.015625 252.585938 C 123.890625 252.339844 120.167969 254.984375 118.757812 259.3125 C 118.027344 261.550781 117.996094 263.886719 118.589844 266.078125 C 117.21875 266.410156 115.964844 266.335938 114.921875 265.863281 C 114.875 265.835938 114.832031 265.8125 114.789062 265.789062 C 112.957031 264.847656 111.785156 262.660156 111.949219 260.414062 C 112.046875 259.113281 112.683594 256.761719 115.9375 255.730469 C 116.75 255.476562 117.40625 254.871094 117.730469 254.078125 C 118.042969 253.289062 117.996094 252.394531 117.585938 251.648438 C 114.847656 246.632812 109.226562 243.550781 102.152344 243.191406 C 94.910156 242.832031 85.355469 245.628906 78.8125 252.519531 Z M 81.988281 257.535156 C 87.226562 251.160156 95.542969 248.5625 101.867188 248.894531 C 105.542969 249.074219 108.613281 250.191406 110.691406 252.035156 C 108.09375 253.898438 106.496094 256.695312 106.253906 260.003906 C 106.21875 260.597656 106.222656 261.1875 106.265625 261.769531 C 98.320312 258.769531 90.824219 258.144531 83.566406 259.851562 C 83.03125 259.097656 82.507812 258.324219 81.988281 257.535156 Z M 88.28125 266.15625 C 100.414062 268.582031 113.003906 283.164062 123.4375 295.226562 C 124.335938 296.265625 125.222656 297.285156 126.101562 298.292969 C 111.550781 290.21875 98.710938 279.320312 88.28125 266.15625 Z M 140.398438 305.136719 C 136.679688 301.800781 132.34375 296.800781 127.75 291.488281 C 120.183594 282.742188 111.523438 272.742188 102.292969 266.421875 C 105.503906 267.460938 108.820312 268.953125 112.253906 270.902344 C 120.277344 275.4375 129.105469 282.460938 140.023438 293 C 148.769531 301.460938 156.675781 307.714844 164.230469 312.0625 C 156.101562 310.550781 148.140625 308.242188 140.398438 305.136719 Z M 193.582031 314.070312 L 193.582031 314.058594 C 192.734375 314.109375 191.820312 314.15625 190.835938 314.167969 L 190.816406 314.167969 C 176.101562 313.96875 162.09375 306.40625 143.984375 288.902344 C 138.761719 283.855469 133.980469 279.589844 129.519531 275.980469 C 130.476562 276.164062 131.457031 276.289062 132.464844 276.289062 C 133.136719 276.289062 133.820312 276.246094 134.511719 276.160156 C 137.039062 275.867188 139.382812 275.152344 141.507812 274.046875 C 142.886719 275.207031 144.675781 276.78125 146.816406 278.667969 C 154.726562 285.621094 167.945312 297.257812 181.210938 306.042969 L 181.789062 306.429688 C 185.972656 309.222656 190.050781 311.9375 194.132812 314.058594 C 193.96875 314.058594 193.785156 314.066406 193.582031 314.070312 Z M 208.425781 312.503906 C 201.035156 312.410156 193.578125 307.4375 184.949219 301.683594 L 184.375 301.289062 C 171.417969 292.71875 158.882812 281.683594 150.589844 274.386719 C 148.921875 272.914062 147.457031 271.632812 146.222656 270.570312 C 147.835938 268.929688 149.179688 266.976562 150.230469 264.75 C 160.234375 272.441406 176.648438 284.777344 191.375 294.53125 C 203.523438 302.582031 214.207031 307.34375 223.863281 308.921875 C 218.8125 310.433594 213.65625 311.644531 208.425781 312.503906 Z M 245.574219 300.125 C 245.5625 300.136719 245.554688 300.140625 245.539062 300.148438 C 245.515625 300.15625 245.492188 300.175781 245.472656 300.183594 C 245.367188 300.246094 245.257812 300.300781 245.15625 300.359375 C 244.644531 300.644531 244.128906 300.902344 243.617188 301.160156 C 243.453125 301.230469 243.265625 301.316406 243.234375 301.332031 C 230.214844 306.835938 214.734375 303.171875 194.53125 289.773438 C 179.132812 279.574219 161.828125 266.5 152.113281 259.003906 C 152.863281 255.214844 152.894531 251.050781 152.222656 246.777344 C 152.917969 246.238281 153.554688 245.601562 154.160156 244.925781 C 154.863281 245.667969 155.574219 246.398438 156.292969 247.09375 C 156.390625 247.203125 156.488281 247.304688 156.597656 247.394531 C 157.371094 248.167969 158.144531 248.9375 158.972656 249.707031 C 158.980469 249.71875 158.992188 249.726562 159.003906 249.738281 C 161.949219 252.484375 164.769531 254.882812 167.625 257.085938 C 167.703125 257.152344 167.761719 257.207031 167.855469 257.277344 C 195.601562 282.386719 216.171875 295.183594 232.582031 297.539062 C 234.582031 297.828125 236.414062 297.960938 238.097656 297.953125 C 246.609375 297.953125 251.234375 294.601562 253.664062 291.644531 C 252.28125 294.785156 249.746094 297.898438 245.574219 300.125 Z M 259.75 291.617188 C 260.621094 288.820312 260.871094 286.078125 260.65625 283.726562 C 260.144531 277.988281 257.097656 273.671875 252.613281 272.171875 C 252.582031 272.160156 252.546875 272.144531 252.515625 272.132812 C 252.515625 272.132812 252.507812 272.132812 252.507812 272.132812 C 250.824219 271.515625 248.851562 271.335938 246.792969 271.636719 C 245.722656 271.792969 244.835938 272.535156 244.492188 273.558594 C 244.15625 274.585938 244.421875 275.71875 245.183594 276.480469 C 245.929688 277.230469 245.871094 278.472656 245.472656 279.371094 C 245.167969 280.058594 244.300781 281.558594 241.597656 281.542969 C 239.054688 281.40625 237.09375 278.828125 236.925781 275.34375 C 236.789062 273.4375 237.296875 271.441406 238.3125 269.757812 C 238.753906 269.230469 239.128906 268.722656 239.414062 268.238281 L 240.007812 267.601562 C 245.230469 262.488281 254.90625 261.578125 262.496094 265.480469 C 262.578125 265.523438 262.660156 265.546875 262.742188 265.578125 C 266.671875 267.628906 271.660156 271.777344 274.074219 280.035156 C 269.5625 284.265625 264.785156 288.128906 259.75 291.617188 Z M 278.511719 275.542969 C 276.414062 270.242188 273.105469 265.855469 268.816406 262.710938 C 293.914062 242.226562 291.597656 214.761719 287.183594 201.308594 C 287.226562 201.328125 287.269531 201.34375 287.316406 201.363281 C 292.191406 203.59375 295.84375 209.609375 297.339844 217.871094 C 300.132812 233.328125 295.351562 256.53125 278.511719 275.542969 Z M 305.667969 233.285156 C 305.644531 233.355469 305.632812 233.433594 305.617188 233.507812 C 304.535156 236.304688 303.347656 239.050781 302.078125 241.738281 C 304.0625 232.625 304.242188 223.992188 302.945312 216.859375 C 301.671875 209.789062 299.042969 204.105469 295.339844 200.25 C 296.761719 199.46875 298.019531 198.335938 298.945312 196.902344 C 300.246094 194.910156 300.667969 192.722656 300.238281 190.65625 C 300.796875 190.867188 301.273438 191.167969 301.578125 191.375 C 306.238281 194.613281 313.101562 207.539062 305.667969 233.285156 Z M 304.828125 186.6875 C 301.253906 184.214844 297.214844 184.023438 294.273438 186.207031 C 293.621094 186.691406 293.203125 187.425781 293.132812 188.238281 C 293.058594 189.042969 293.332031 189.847656 293.882812 190.441406 C 294.847656 191.472656 294.945312 192.601562 294.164062 193.789062 C 293.289062 195.152344 291.382812 196.234375 289.539062 195.613281 C 286.359375 194.519531 284.394531 191.941406 284.148438 188.519531 C 283.851562 184.328125 286.3125 180.253906 290.484375 178.109375 C 291.644531 177.488281 292.933594 177.015625 294.4375 176.671875 C 299.71875 175.453125 309.417969 176.898438 314.140625 183.617188 C 314.191406 184.945312 314.226562 186.246094 314.226562 187.585938 C 314.226562 192.289062 313.945312 196.9375 313.4375 201.535156 C 311.828125 194.425781 308.675781 189.355469 304.828125 186.6875 Z M 151.839844 201.191406 C 152.363281 201.59375 152.972656 201.792969 153.585938 201.792969 C 154.4375 201.792969 155.28125 201.410156 155.839844 200.679688 C 156.804688 199.441406 156.574219 197.644531 155.328125 196.679688 C 154.8125 196.28125 154.507812 195.984375 154.449219 195.933594 C 153.347656 194.847656 151.558594 194.847656 150.445312 195.945312 C 149.332031 197.054688 149.324219 198.863281 150.425781 199.980469 C 150.425781 199.980469 150.925781 200.484375 151.839844 201.191406 " fill-opacity="1" fill-rule="nonzero"/></g><g fill="#ffffff" fill-opacity="1"><g transform="translate(73.420452, 97.712392)"><g><path d="M -11.09375 -13.078125 C -11.519531 -13.460938 -11.742188 -13.941406 -11.765625 -14.515625 C -11.796875 -15.085938 -11.617188 -15.59375 -11.234375 -16.03125 L -6.796875 -20.953125 C -6.117188 -21.710938 -5.394531 -22.332031 -4.625 -22.8125 C -3.851562 -23.289062 -3.054688 -23.59375 -2.234375 -23.71875 C -1.421875 -23.851562 -0.597656 -23.789062 0.234375 -23.53125 C 1.078125 -23.28125 1.894531 -22.796875 2.6875 -22.078125 L 2.71875 -22.046875 C 3.863281 -21.023438 4.550781 -19.941406 4.78125 -18.796875 C 5.007812 -17.660156 4.910156 -16.503906 4.484375 -15.328125 L 9.09375 -15.125 C 9.394531 -15.101562 9.679688 -15.054688 9.953125 -14.984375 C 10.222656 -14.921875 10.484375 -14.78125 10.734375 -14.5625 C 11.160156 -14.175781 11.363281 -13.707031 11.34375 -13.15625 C 11.332031 -12.613281 11.15625 -12.15625 10.8125 -11.78125 C 10.5 -11.425781 10.15625 -11.195312 9.78125 -11.09375 C 9.414062 -11 9.035156 -10.957031 8.640625 -10.96875 L 2.0625 -11.40625 L -0.1875 -8.90625 L 2.90625 -6.109375 C 3.332031 -5.722656 3.5625 -5.238281 3.59375 -4.65625 C 3.625 -4.082031 3.441406 -3.582031 3.046875 -3.15625 C 2.660156 -2.71875 2.175781 -2.484375 1.59375 -2.453125 C 1.019531 -2.429688 0.519531 -2.613281 0.09375 -3 Z M -7.015625 -15.046875 L -2.953125 -11.375 L -0.109375 -14.546875 C 0.585938 -15.316406 0.941406 -16.066406 0.953125 -16.796875 C 0.960938 -17.535156 0.660156 -18.179688 0.046875 -18.734375 L 0.015625 -18.765625 C -0.671875 -19.390625 -1.375 -19.632812 -2.09375 -19.5 C -2.820312 -19.375 -3.535156 -18.925781 -4.234375 -18.15625 Z M -7.015625 -15.046875 "/></g></g></g><g fill="#ffffff" fill-opacity="1"><g transform="translate(89.878339, 80.36101)"><g><path d="M -9.265625 -14.640625 C -9.640625 -15.078125 -9.804688 -15.582031 -9.765625 -16.15625 C -9.722656 -16.738281 -9.476562 -17.222656 -9.03125 -17.609375 C -8.59375 -17.984375 -8.082031 -18.144531 -7.5 -18.09375 C -6.925781 -18.050781 -6.453125 -17.8125 -6.078125 -17.375 L 3.8125 -5.8125 C 4.195312 -5.375 4.363281 -4.863281 4.3125 -4.28125 C 4.269531 -3.707031 4.03125 -3.234375 3.59375 -2.859375 C 3.144531 -2.472656 2.632812 -2.300781 2.0625 -2.34375 C 1.488281 -2.394531 1.007812 -2.640625 0.625 -3.078125 Z M -9.265625 -14.640625 "/></g></g></g><g fill="#ffffff" fill-opacity="1"><g transform="translate(100.015246, 71.593441)"><g><path d="M -7.96875 -17.796875 C -7.5 -18.097656 -7.039062 -18.226562 -6.59375 -18.1875 C -6.144531 -18.144531 -5.738281 -17.988281 -5.375 -17.71875 L 5.359375 -9.984375 L 2.59375 -23.078125 C 2.519531 -23.453125 2.550781 -23.847656 2.6875 -24.265625 C 2.832031 -24.679688 3.117188 -25.023438 3.546875 -25.296875 C 4.035156 -25.617188 4.550781 -25.726562 5.09375 -25.625 C 5.644531 -25.53125 6.078125 -25.238281 6.390625 -24.75 C 6.484375 -24.601562 6.550781 -24.445312 6.59375 -24.28125 C 6.644531 -24.125 6.679688 -23.976562 6.703125 -23.84375 L 9.640625 -7.921875 C 9.859375 -6.742188 9.5 -5.847656 8.5625 -5.234375 L 8.328125 -5.09375 C 7.390625 -4.476562 6.425781 -4.503906 5.4375 -5.171875 L -7.84375 -14.203125 C -7.976562 -14.285156 -8.109375 -14.382812 -8.234375 -14.5 C -8.367188 -14.613281 -8.488281 -14.742188 -8.59375 -14.890625 C -8.90625 -15.378906 -9 -15.90625 -8.875 -16.46875 C -8.75 -17.039062 -8.445312 -17.484375 -7.96875 -17.796875 Z M -7.96875 -17.796875 "/></g></g></g><g fill="#ffffff" fill-opacity="1"><g transform="translate(120.09837, 58.935462)"><g><path d="M 1.25 -2.84375 L -4.8125 -16.453125 C -5.050781 -16.984375 -5.0625 -17.515625 -4.84375 -18.046875 C -4.632812 -18.585938 -4.265625 -18.976562 -3.734375 -19.21875 L 5.921875 -23.515625 C 6.410156 -23.734375 6.890625 -23.75 7.359375 -23.5625 C 7.835938 -23.375 8.179688 -23.039062 8.390625 -22.5625 C 8.609375 -22.070312 8.625 -21.59375 8.4375 -21.125 C 8.257812 -20.65625 7.925781 -20.3125 7.4375 -20.09375 L -0.328125 -16.640625 L 1.234375 -13.109375 L 7.875 -16.0625 C 8.363281 -16.28125 8.847656 -16.300781 9.328125 -16.125 C 9.816406 -15.945312 10.164062 -15.613281 10.375 -15.125 C 10.59375 -14.644531 10.601562 -14.164062 10.40625 -13.6875 C 10.21875 -13.21875 9.878906 -12.875 9.390625 -12.65625 L 2.75 -9.703125 L 4.390625 -6.03125 L 12.28125 -9.546875 C 12.757812 -9.753906 13.238281 -9.765625 13.71875 -9.578125 C 14.195312 -9.398438 14.546875 -9.078125 14.765625 -8.609375 C 14.972656 -8.117188 14.984375 -7.632812 14.796875 -7.15625 C 14.609375 -6.6875 14.273438 -6.347656 13.796875 -6.140625 L 4.015625 -1.78125 C 3.484375 -1.539062 2.945312 -1.523438 2.40625 -1.734375 C 1.863281 -1.953125 1.476562 -2.320312 1.25 -2.84375 Z M 1.25 -2.84375 "/></g></g></g><g fill="#ffffff" fill-opacity="1"><g transform="translate(140.505409, 50.13745)"><g><path d="M -2.140625 -17.015625 C -2.285156 -17.578125 -2.210938 -18.101562 -1.921875 -18.59375 C -1.640625 -19.09375 -1.210938 -19.414062 -0.640625 -19.5625 L 5.75 -21.265625 C 6.738281 -21.523438 7.6875 -21.644531 8.59375 -21.625 C 9.5 -21.613281 10.328125 -21.4375 11.078125 -21.09375 C 11.835938 -20.757812 12.5 -20.253906 13.0625 -19.578125 C 13.632812 -18.910156 14.054688 -18.0625 14.328125 -17.03125 L 14.34375 -16.984375 C 14.738281 -15.503906 14.71875 -14.222656 14.28125 -13.140625 C 13.851562 -12.066406 13.132812 -11.144531 12.125 -10.375 L 15.875 -7.703125 C 16.125 -7.515625 16.34375 -7.316406 16.53125 -7.109375 C 16.71875 -6.910156 16.851562 -6.648438 16.9375 -6.328125 C 17.082031 -5.773438 17.003906 -5.269531 16.703125 -4.8125 C 16.398438 -4.363281 16.003906 -4.078125 15.515625 -3.953125 C 15.054688 -3.828125 14.640625 -3.820312 14.265625 -3.9375 C 13.890625 -4.0625 13.546875 -4.238281 13.234375 -4.46875 L 7.953125 -8.4375 L 4.703125 -7.5625 L 5.765625 -3.53125 C 5.921875 -2.96875 5.851562 -2.4375 5.5625 -1.9375 C 5.28125 -1.4375 4.859375 -1.113281 4.296875 -0.96875 C 3.722656 -0.820312 3.1875 -0.894531 2.6875 -1.1875 C 2.195312 -1.476562 1.875 -1.90625 1.71875 -2.46875 Z M 2.34375 -16.4375 L 3.75 -11.140625 L 7.875 -12.25 C 8.875 -12.507812 9.578125 -12.945312 9.984375 -13.5625 C 10.390625 -14.175781 10.484375 -14.878906 10.265625 -15.671875 L 10.265625 -15.71875 C 10.023438 -16.613281 9.566406 -17.203125 8.890625 -17.484375 C 8.222656 -17.773438 7.382812 -17.785156 6.375 -17.515625 Z M 2.34375 -16.4375 "/></g></g></g><g fill="#ffffff" fill-opacity="1"><g transform="translate(163.801734, 44.606199)"><g/></g></g><g fill="#ffffff" fill-opacity="1"><g transform="translate(176.076116, 42.798011)"><g><path d="M 2.296875 -1.90625 L 2.28125 -17.09375 C 2.28125 -17.675781 2.484375 -18.171875 2.890625 -18.578125 C 3.296875 -18.984375 3.789062 -19.1875 4.375 -19.1875 L 4.8125 -19.1875 C 5.320312 -19.1875 5.738281 -19.070312 6.0625 -18.84375 C 6.394531 -18.625 6.703125 -18.332031 6.984375 -17.96875 L 15.109375 -7.34375 L 15.09375 -17.1875 C 15.09375 -17.769531 15.289062 -18.257812 15.6875 -18.65625 C 16.09375 -19.0625 16.582031 -19.265625 17.15625 -19.265625 C 17.738281 -19.265625 18.226562 -19.0625 18.625 -18.65625 C 19.03125 -18.257812 19.234375 -17.769531 19.234375 -17.1875 L 19.25 -2 C 19.25 -1.425781 19.039062 -0.929688 18.625 -0.515625 C 18.21875 -0.109375 17.726562 0.09375 17.15625 0.09375 L 17.015625 0.09375 C 16.503906 0.09375 16.082031 -0.0195312 15.75 -0.25 C 15.425781 -0.476562 15.117188 -0.773438 14.828125 -1.140625 L 6.421875 -12.140625 L 6.4375 -1.90625 C 6.4375 -1.320312 6.234375 -0.832031 5.828125 -0.4375 C 5.429688 -0.0390625 4.941406 0.15625 4.359375 0.15625 C 3.773438 0.15625 3.285156 -0.0390625 2.890625 -0.4375 C 2.492188 -0.832031 2.296875 -1.320312 2.296875 -1.90625 Z M 2.296875 -1.90625 "/></g></g></g><g fill="#ffffff" fill-opacity="1"><g transform="translate(201.421473, 43.11783)"><g><path d="M 14.640625 -17.125 C 16.066406 -16.875 17.257812 -16.515625 18.21875 -16.046875 C 19.175781 -15.578125 20.019531 -14.953125 20.75 -14.171875 C 20.914062 -13.992188 21.066406 -13.75 21.203125 -13.4375 C 21.347656 -13.132812 21.382812 -12.78125 21.3125 -12.375 C 21.21875 -11.789062 20.9375 -11.335938 20.46875 -11.015625 C 20 -10.691406 19.476562 -10.582031 18.90625 -10.6875 C 18.601562 -10.738281 18.359375 -10.820312 18.171875 -10.9375 C 17.992188 -11.0625 17.84375 -11.191406 17.71875 -11.328125 C 17.21875 -11.847656 16.675781 -12.273438 16.09375 -12.609375 C 15.507812 -12.941406 14.757812 -13.1875 13.84375 -13.34375 C 13.09375 -13.476562 12.359375 -13.445312 11.640625 -13.25 C 10.929688 -13.050781 10.285156 -12.726562 9.703125 -12.28125 C 9.128906 -11.84375 8.632812 -11.289062 8.21875 -10.625 C 7.8125 -9.96875 7.539062 -9.238281 7.40625 -8.4375 L 7.390625 -8.390625 C 7.234375 -7.523438 7.234375 -6.707031 7.390625 -5.9375 C 7.554688 -5.164062 7.84375 -4.46875 8.25 -3.84375 C 8.664062 -3.21875 9.195312 -2.691406 9.84375 -2.265625 C 10.488281 -1.847656 11.222656 -1.566406 12.046875 -1.421875 C 13.597656 -1.148438 14.960938 -1.296875 16.140625 -1.859375 L 16.609375 -4.546875 L 13.828125 -5.046875 C 13.316406 -5.128906 12.914062 -5.367188 12.625 -5.765625 C 12.332031 -6.171875 12.234375 -6.625 12.328125 -7.125 C 12.410156 -7.625 12.65625 -8.015625 13.0625 -8.296875 C 13.476562 -8.585938 13.941406 -8.691406 14.453125 -8.609375 L 19.171875 -7.765625 C 19.742188 -7.671875 20.191406 -7.390625 20.515625 -6.921875 C 20.847656 -6.453125 20.96875 -5.925781 20.875 -5.34375 L 20.0625 -0.78125 C 19.863281 0.375 19.226562 1.171875 18.15625 1.609375 C 17.3125 1.929688 16.300781 2.191406 15.125 2.390625 C 13.945312 2.585938 12.65625 2.566406 11.25 2.328125 C 9.78125 2.066406 8.484375 1.585938 7.359375 0.890625 C 6.242188 0.191406 5.328125 -0.660156 4.609375 -1.671875 C 3.890625 -2.691406 3.390625 -3.832031 3.109375 -5.09375 C 2.835938 -6.363281 2.820312 -7.695312 3.0625 -9.09375 L 3.078125 -9.15625 C 3.316406 -10.5 3.78125 -11.707031 4.46875 -12.78125 C 5.164062 -13.863281 6.03125 -14.773438 7.0625 -15.515625 C 8.101562 -16.253906 9.269531 -16.769531 10.5625 -17.0625 C 11.863281 -17.351562 13.222656 -17.375 14.640625 -17.125 Z M 14.640625 -17.125 "/></g></g></g><g fill="#ffffff" fill-opacity="1"><g transform="translate(226.181629, 47.850196)"><g><path d="M 10.390625 -16.71875 C 10.941406 -16.519531 11.335938 -16.15625 11.578125 -15.625 C 11.816406 -15.09375 11.835938 -14.5625 11.640625 -14.03125 L 8.625 -5.671875 C 8.082031 -4.179688 8.019531 -2.953125 8.4375 -1.984375 C 8.851562 -1.015625 9.679688 -0.304688 10.921875 0.140625 C 12.140625 0.585938 13.210938 0.578125 14.140625 0.109375 C 15.078125 -0.347656 15.804688 -1.304688 16.328125 -2.765625 L 19.390625 -11.234375 C 19.585938 -11.765625 19.945312 -12.15625 20.46875 -12.40625 C 21 -12.664062 21.535156 -12.695312 22.078125 -12.5 C 22.628906 -12.300781 23.023438 -11.9375 23.265625 -11.40625 C 23.515625 -10.875 23.539062 -10.34375 23.34375 -9.8125 L 20.34375 -1.484375 C 19.851562 -0.140625 19.242188 0.96875 18.515625 1.84375 C 17.785156 2.726562 16.953125 3.382812 16.015625 3.8125 C 15.085938 4.25 14.082031 4.457031 13 4.4375 C 11.914062 4.425781 10.765625 4.203125 9.546875 3.765625 C 7.140625 2.890625 5.476562 1.535156 4.5625 -0.296875 C 3.65625 -2.128906 3.679688 -4.367188 4.640625 -7.015625 L 7.6875 -15.46875 C 7.882812 -16 8.25 -16.390625 8.78125 -16.640625 C 9.3125 -16.890625 9.847656 -16.914062 10.390625 -16.71875 Z M 10.390625 -16.71875 "/></g></g></g><g fill="#ffffff" fill-opacity="1"><g transform="translate(249.103014, 56.551569)"><g><path d="M 8.9375 -14.734375 C 9.207031 -15.234375 9.617188 -15.550781 10.171875 -15.6875 C 10.722656 -15.832031 11.253906 -15.757812 11.765625 -15.46875 C 12.171875 -15.25 12.457031 -14.957031 12.625 -14.59375 C 12.800781 -14.226562 12.90625 -13.8125 12.9375 -13.34375 L 13.71875 -5.25 L 21.125 -8.8125 C 21.53125 -9.03125 21.929688 -9.160156 22.328125 -9.203125 C 22.734375 -9.242188 23.125 -9.15625 23.5 -8.9375 C 24.0625 -8.632812 24.40625 -8.21875 24.53125 -7.6875 C 24.65625 -7.164062 24.578125 -6.648438 24.296875 -6.140625 C 24.148438 -5.890625 23.96875 -5.6875 23.75 -5.53125 C 23.53125 -5.375 23.3125 -5.242188 23.09375 -5.140625 L 13.65625 -0.875 L 10.96875 3.921875 C 10.675781 4.429688 10.25 4.757812 9.6875 4.90625 C 9.132812 5.0625 8.609375 5 8.109375 4.71875 C 7.597656 4.4375 7.265625 4.019531 7.109375 3.46875 C 6.953125 2.914062 7.019531 2.382812 7.3125 1.875 L 9.953125 -2.859375 L 8.671875 -13.1875 C 8.640625 -13.425781 8.632812 -13.675781 8.65625 -13.9375 C 8.6875 -14.195312 8.78125 -14.460938 8.9375 -14.734375 Z M 8.9375 -14.734375 "/></g></g></g><g fill="#ffffff" fill-opacity="1"><g transform="translate(268.778395, 67.944688)"><g><path d="M 3.109375 -0.21875 L 12.3125 -11.921875 C 12.675781 -12.378906 13.140625 -12.644531 13.703125 -12.71875 C 14.273438 -12.789062 14.789062 -12.644531 15.25 -12.28125 L 23.5625 -5.75 C 23.976562 -5.414062 24.210938 -5 24.265625 -4.5 C 24.328125 -4 24.195312 -3.535156 23.875 -3.109375 C 23.539062 -2.691406 23.125 -2.453125 22.625 -2.390625 C 22.125 -2.335938 21.664062 -2.476562 21.25 -2.8125 L 14.5625 -8.0625 L 12.171875 -5.03125 L 17.890625 -0.546875 C 18.304688 -0.210938 18.546875 0.207031 18.609375 0.71875 C 18.671875 1.226562 18.539062 1.691406 18.21875 2.109375 C 17.894531 2.523438 17.476562 2.757812 16.96875 2.8125 C 16.46875 2.863281 16.007812 2.722656 15.59375 2.390625 L 9.875 -2.09375 L 7.390625 1.0625 L 14.1875 6.40625 C 14.59375 6.726562 14.820312 7.144531 14.875 7.65625 C 14.9375 8.164062 14.8125 8.625 14.5 9.03125 C 14.164062 9.457031 13.742188 9.695312 13.234375 9.75 C 12.734375 9.800781 12.28125 9.664062 11.875 9.34375 L 3.453125 2.71875 C 2.992188 2.351562 2.734375 1.882812 2.671875 1.3125 C 2.609375 0.738281 2.753906 0.226562 3.109375 -0.21875 Z M 3.109375 -0.21875 "/></g></g></g><g fill="#ffffff" fill-opacity="1"><g transform="translate(286.094229, 81.797167)"><g><path d="M 2.953125 0.421875 L 14.171875 -9.8125 C 14.609375 -10.207031 15.113281 -10.390625 15.6875 -10.359375 C 16.257812 -10.335938 16.738281 -10.109375 17.125 -9.671875 L 17.421875 -9.359375 C 17.765625 -8.972656 17.96875 -8.582031 18.03125 -8.1875 C 18.09375 -7.800781 18.082031 -7.382812 18 -6.9375 L 15.59375 6.234375 L 22.859375 -0.390625 C 23.296875 -0.785156 23.796875 -0.972656 24.359375 -0.953125 C 24.921875 -0.929688 25.394531 -0.707031 25.78125 -0.28125 C 26.175781 0.15625 26.363281 0.65625 26.34375 1.21875 C 26.320312 1.78125 26.09375 2.257812 25.65625 2.65625 L 14.4375 12.875 C 14.007812 13.257812 13.503906 13.441406 12.921875 13.421875 C 12.347656 13.398438 11.867188 13.175781 11.484375 12.75 L 11.390625 12.65625 C 11.046875 12.28125 10.84375 11.890625 10.78125 11.484375 C 10.726562 11.085938 10.738281 10.65625 10.8125 10.1875 L 13.3125 -3.421875 L 5.75 3.46875 C 5.320312 3.863281 4.828125 4.046875 4.265625 4.015625 C 3.703125 3.992188 3.222656 3.765625 2.828125 3.328125 C 2.429688 2.898438 2.242188 2.40625 2.265625 1.84375 C 2.296875 1.289062 2.523438 0.816406 2.953125 0.421875 Z M 2.953125 0.421875 "/></g></g></g><g fill="#ffffff" fill-opacity="1"><g transform="translate(67.925605, 297.573728)"><g><path d="M 11.03125 -10.5625 C 11.3125 -10.863281 11.644531 -11.015625 12.03125 -11.015625 C 12.425781 -11.023438 12.773438 -10.890625 13.078125 -10.609375 C 13.347656 -10.359375 13.503906 -10.078125 13.546875 -9.765625 C 13.597656 -9.453125 13.554688 -9.144531 13.421875 -8.84375 L 8.546875 2.09375 L 18.9375 -3.734375 C 19.257812 -3.898438 19.582031 -3.976562 19.90625 -3.96875 C 20.238281 -3.957031 20.539062 -3.828125 20.8125 -3.578125 L 20.96875 -3.4375 C 21.226562 -3.195312 21.375 -2.914062 21.40625 -2.59375 C 21.445312 -2.269531 21.398438 -1.941406 21.265625 -1.609375 L 16.375 9.25 L 26.875 3.4375 C 27.132812 3.28125 27.421875 3.210938 27.734375 3.234375 C 28.054688 3.253906 28.347656 3.382812 28.609375 3.625 C 28.898438 3.894531 29.0625 4.222656 29.09375 4.609375 C 29.132812 5.003906 29.019531 5.347656 28.75 5.640625 C 28.6875 5.703125 28.601562 5.765625 28.5 5.828125 C 28.40625 5.890625 28.316406 5.941406 28.234375 5.984375 L 15.375 12.765625 C 15.03125 12.953125 14.691406 13.039062 14.359375 13.03125 C 14.023438 13.019531 13.722656 12.890625 13.453125 12.640625 L 13.234375 12.453125 C 12.972656 12.203125 12.820312 11.914062 12.78125 11.59375 C 12.738281 11.269531 12.796875 10.921875 12.953125 10.546875 L 17.53125 0.109375 L 7.515625 5.578125 C 7.179688 5.773438 6.84375 5.863281 6.5 5.84375 C 6.164062 5.820312 5.863281 5.6875 5.59375 5.4375 L 5.390625 5.25 C 5.117188 5 4.957031 4.707031 4.90625 4.375 C 4.863281 4.050781 4.921875 3.703125 5.078125 3.328125 L 10.71875 -10.0625 C 10.832031 -10.289062 10.9375 -10.457031 11.03125 -10.5625 Z M 11.03125 -10.5625 "/></g></g></g><g fill="#ffffff" fill-opacity="1"><g transform="translate(90.917358, 317.614272)"><g><path d="M 2.578125 -0.046875 L 10.09375 -11.40625 C 10.3125 -11.738281 10.617188 -11.941406 11.015625 -12.015625 C 11.410156 -12.097656 11.78125 -12.023438 12.125 -11.796875 L 20.125 -6.484375 C 20.4375 -6.285156 20.628906 -6.015625 20.703125 -5.671875 C 20.773438 -5.328125 20.707031 -5.003906 20.5 -4.703125 C 20.300781 -4.398438 20.03125 -4.210938 19.6875 -4.140625 C 19.34375 -4.066406 19.015625 -4.128906 18.703125 -4.328125 L 11.890625 -8.84375 L 9.515625 -5.25 L 15.453125 -1.328125 C 15.753906 -1.128906 15.9375 -0.851562 16 -0.5 C 16.0625 -0.144531 15.992188 0.179688 15.796875 0.484375 C 15.585938 0.796875 15.3125 0.976562 14.96875 1.03125 C 14.632812 1.09375 14.316406 1.023438 14.015625 0.828125 L 8.078125 -3.09375 L 5.625 0.625 L 12.546875 5.203125 C 12.847656 5.398438 13.03125 5.671875 13.09375 6.015625 C 13.164062 6.367188 13.101562 6.695312 12.90625 7 C 12.707031 7.300781 12.429688 7.484375 12.078125 7.546875 C 11.734375 7.617188 11.410156 7.554688 11.109375 7.359375 L 3 1.984375 C 2.65625 1.753906 2.441406 1.441406 2.359375 1.046875 C 2.273438 0.660156 2.347656 0.296875 2.578125 -0.046875 Z M 2.578125 -0.046875 "/></g></g></g><g fill="#ffffff" fill-opacity="1"><g transform="translate(107.887172, 328.569327)"><g><path d="M 2.546875 -0.375 L 8.5625 -12.59375 C 8.738281 -12.957031 9.015625 -13.203125 9.390625 -13.328125 C 9.773438 -13.460938 10.148438 -13.441406 10.515625 -13.265625 L 15.859375 -10.640625 C 16.453125 -10.347656 17.003906 -9.984375 17.515625 -9.546875 C 18.035156 -9.117188 18.453125 -8.644531 18.765625 -8.125 C 19.085938 -7.601562 19.269531 -7.03125 19.3125 -6.40625 C 19.363281 -5.789062 19.222656 -5.140625 18.890625 -4.453125 L 18.875 -4.40625 C 18.65625 -3.96875 18.398438 -3.601562 18.109375 -3.3125 C 17.816406 -3.019531 17.503906 -2.785156 17.171875 -2.609375 C 16.847656 -2.441406 16.507812 -2.320312 16.15625 -2.25 C 15.8125 -2.175781 15.460938 -2.144531 15.109375 -2.15625 C 15.460938 -1.78125 15.769531 -1.398438 16.03125 -1.015625 C 16.300781 -0.640625 16.492188 -0.25 16.609375 0.15625 C 16.734375 0.570312 16.773438 1.003906 16.734375 1.453125 C 16.691406 1.910156 16.546875 2.394531 16.296875 2.90625 L 16.28125 2.953125 C 15.957031 3.609375 15.535156 4.125 15.015625 4.5 C 14.503906 4.882812 13.925781 5.128906 13.28125 5.234375 C 12.632812 5.335938 11.929688 5.3125 11.171875 5.15625 C 10.410156 5 9.613281 4.71875 8.78125 4.3125 L 3.21875 1.578125 C 2.851562 1.398438 2.601562 1.125 2.46875 0.75 C 2.34375 0.375 2.367188 0 2.546875 -0.375 Z M 5.609375 -0.109375 L 9.9375 2.015625 C 10.832031 2.453125 11.617188 2.625 12.296875 2.53125 C 12.972656 2.445312 13.476562 2.066406 13.8125 1.390625 L 13.828125 1.34375 C 14.140625 0.707031 14.128906 0.09375 13.796875 -0.5 C 13.460938 -1.09375 12.78125 -1.640625 11.75 -2.140625 L 7.609375 -4.171875 Z M 10.625 -10.328125 L 8.6875 -6.375 L 12.25 -4.625 C 13.101562 -4.207031 13.863281 -4.039062 14.53125 -4.125 C 15.207031 -4.207031 15.710938 -4.59375 16.046875 -5.28125 L 16.078125 -5.3125 C 16.367188 -5.914062 16.367188 -6.488281 16.078125 -7.03125 C 15.796875 -7.582031 15.234375 -8.066406 14.390625 -8.484375 Z M 10.625 -10.328125 "/></g></g></g><g fill="#ffffff" fill-opacity="1"><g transform="translate(127.106882, 337.484919)"><g/></g></g><g fill="#ffffff" fill-opacity="1"><g transform="translate(135.607318, 340.850301)"><g><path d="M 6 -13.984375 C 6.101562 -14.378906 6.332031 -14.675781 6.6875 -14.875 C 7.039062 -15.070312 7.414062 -15.117188 7.8125 -15.015625 L 12.34375 -13.78125 C 13.601562 -13.4375 14.695312 -12.921875 15.625 -12.234375 C 16.550781 -11.554688 17.289062 -10.757812 17.84375 -9.84375 C 18.40625 -8.925781 18.757812 -7.925781 18.90625 -6.84375 C 19.050781 -5.757812 18.972656 -4.65625 18.671875 -3.53125 L 18.65625 -3.484375 C 18.34375 -2.359375 17.851562 -1.367188 17.1875 -0.515625 C 16.519531 0.335938 15.710938 1.019531 14.765625 1.53125 C 13.816406 2.039062 12.765625 2.359375 11.609375 2.484375 C 10.460938 2.617188 9.257812 2.515625 8 2.171875 L 3.46875 0.9375 C 3.070312 0.832031 2.769531 0.609375 2.5625 0.265625 C 2.363281 -0.078125 2.320312 -0.453125 2.4375 -0.859375 Z M 5.546875 -1.234375 L 8.6875 -0.375 C 9.519531 -0.144531 10.316406 -0.0664062 11.078125 -0.140625 C 11.835938 -0.222656 12.519531 -0.441406 13.125 -0.796875 C 13.726562 -1.148438 14.253906 -1.617188 14.703125 -2.203125 C 15.160156 -2.785156 15.492188 -3.46875 15.703125 -4.25 L 15.71875 -4.28125 C 15.925781 -5.0625 15.984375 -5.820312 15.890625 -6.5625 C 15.804688 -7.300781 15.59375 -7.976562 15.25 -8.59375 C 14.90625 -9.207031 14.425781 -9.742188 13.8125 -10.203125 C 13.195312 -10.660156 12.472656 -11.003906 11.640625 -11.234375 L 8.5 -12.09375 Z M 5.546875 -1.234375 "/></g></g></g><g fill="#ffffff" fill-opacity="1"><g transform="translate(157.77056, 346.482366)"><g><path d="M 2.296875 -1.171875 L 4.109375 -14.671875 C 4.160156 -15.066406 4.34375 -15.382812 4.65625 -15.625 C 4.976562 -15.875 5.34375 -15.972656 5.75 -15.921875 L 15.28125 -14.640625 C 15.632812 -14.597656 15.921875 -14.429688 16.140625 -14.140625 C 16.359375 -13.859375 16.441406 -13.535156 16.390625 -13.171875 C 16.335938 -12.816406 16.171875 -12.53125 15.890625 -12.3125 C 15.609375 -12.101562 15.289062 -12.019531 14.9375 -12.0625 L 6.828125 -13.140625 L 6.265625 -8.890625 L 13.3125 -7.953125 C 13.675781 -7.910156 13.960938 -7.738281 14.171875 -7.4375 C 14.378906 -7.144531 14.457031 -6.816406 14.40625 -6.453125 C 14.363281 -6.097656 14.203125 -5.816406 13.921875 -5.609375 C 13.648438 -5.410156 13.332031 -5.332031 12.96875 -5.375 L 5.921875 -6.3125 L 5.328125 -1.90625 L 13.5625 -0.8125 C 13.914062 -0.769531 14.203125 -0.601562 14.421875 -0.3125 C 14.640625 -0.03125 14.722656 0.289062 14.671875 0.65625 C 14.617188 1.007812 14.453125 1.289062 14.171875 1.5 C 13.890625 1.71875 13.570312 1.804688 13.21875 1.765625 L 3.5625 0.46875 C 3.15625 0.414062 2.828125 0.234375 2.578125 -0.078125 C 2.335938 -0.398438 2.242188 -0.765625 2.296875 -1.171875 Z M 2.296875 -1.171875 "/></g></g></g><g fill="#ffffff" fill-opacity="1"><g transform="translate(177.826228, 348.923075)"><g><path d="M 1.015625 -15.234375 C 1.023438 -15.628906 1.171875 -15.960938 1.453125 -16.234375 C 1.734375 -16.515625 2.082031 -16.648438 2.5 -16.640625 C 2.875 -16.640625 3.179688 -16.546875 3.421875 -16.359375 C 3.671875 -16.171875 3.859375 -15.914062 3.984375 -15.59375 L 8.703125 -3.65625 L 13.59375 -15.65625 C 13.6875 -15.914062 13.851562 -16.140625 14.09375 -16.328125 C 14.34375 -16.515625 14.644531 -16.609375 15 -16.609375 C 15.40625 -16.597656 15.742188 -16.457031 16.015625 -16.1875 C 16.296875 -15.925781 16.429688 -15.597656 16.421875 -15.203125 C 16.421875 -15.085938 16.40625 -14.972656 16.375 -14.859375 C 16.34375 -14.753906 16.3125 -14.660156 16.28125 -14.578125 L 10.421875 -0.90625 C 10.265625 -0.550781 10.046875 -0.265625 9.765625 -0.046875 C 9.492188 0.160156 9.148438 0.265625 8.734375 0.265625 L 8.578125 0.265625 C 8.171875 0.265625 7.832031 0.160156 7.5625 -0.046875 C 7.289062 -0.265625 7.078125 -0.550781 6.921875 -0.90625 L 1.1875 -14.546875 C 1.132812 -14.660156 1.09375 -14.769531 1.0625 -14.875 C 1.03125 -14.988281 1.015625 -15.109375 1.015625 -15.234375 Z M 1.015625 -15.234375 "/></g></g></g><g fill="#ffffff" fill-opacity="1"><g transform="translate(199.511998, 348.671462)"><g><path d="M 1.921875 -1.71875 L 0.21875 -15.21875 C 0.164062 -15.625 0.265625 -15.984375 0.515625 -16.296875 C 0.765625 -16.617188 1.09375 -16.804688 1.5 -16.859375 L 11.03125 -18.0625 C 11.394531 -18.101562 11.71875 -18.015625 12 -17.796875 C 12.28125 -17.578125 12.441406 -17.285156 12.484375 -16.921875 C 12.523438 -16.566406 12.4375 -16.25 12.21875 -15.96875 C 12 -15.6875 11.707031 -15.523438 11.34375 -15.484375 L 3.234375 -14.453125 L 3.78125 -10.1875 L 10.84375 -11.078125 C 11.207031 -11.128906 11.523438 -11.039062 11.796875 -10.8125 C 12.078125 -10.59375 12.238281 -10.300781 12.28125 -9.9375 C 12.332031 -9.570312 12.25 -9.253906 12.03125 -8.984375 C 11.820312 -8.710938 11.535156 -8.550781 11.171875 -8.5 L 4.109375 -7.609375 L 4.65625 -3.203125 L 12.890625 -4.25 C 13.253906 -4.289062 13.578125 -4.203125 13.859375 -3.984375 C 14.140625 -3.765625 14.304688 -3.472656 14.359375 -3.109375 C 14.398438 -2.753906 14.3125 -2.4375 14.09375 -2.15625 C 13.875 -1.875 13.582031 -1.710938 13.21875 -1.671875 L 3.5625 -0.453125 C 3.15625 -0.398438 2.789062 -0.492188 2.46875 -0.734375 C 2.15625 -0.984375 1.972656 -1.3125 1.921875 -1.71875 Z M 1.921875 -1.71875 "/></g></g></g><g fill="#ffffff" fill-opacity="1"><g transform="translate(219.456313, 345.856724)"><g><path d="M -1.640625 -15.28125 C -1.742188 -15.675781 -1.691406 -16.039062 -1.484375 -16.375 C -1.273438 -16.707031 -0.972656 -16.925781 -0.578125 -17.03125 C -0.179688 -17.125 0.179688 -17.070312 0.515625 -16.875 C 0.847656 -16.675781 1.066406 -16.378906 1.171875 -15.984375 L 4.234375 -3.78125 L 11.5 -5.609375 C 11.851562 -5.703125 12.1875 -5.648438 12.5 -5.453125 C 12.8125 -5.265625 13.007812 -5 13.09375 -4.65625 C 13.1875 -4.300781 13.140625 -3.96875 12.953125 -3.65625 C 12.765625 -3.34375 12.492188 -3.140625 12.140625 -3.046875 L 3.484375 -0.875 C 3.085938 -0.769531 2.71875 -0.816406 2.375 -1.015625 C 2.03125 -1.222656 1.804688 -1.53125 1.703125 -1.9375 Z M -1.640625 -15.28125 "/></g></g></g><g fill="#ffffff" fill-opacity="1"><g transform="translate(237.895597, 341.111558)"><g><path d="M 3.109375 -19.359375 C 4.296875 -19.835938 5.460938 -20.054688 6.609375 -20.015625 C 7.753906 -19.984375 8.820312 -19.75 9.8125 -19.3125 C 10.800781 -18.882812 11.679688 -18.269531 12.453125 -17.46875 C 13.234375 -16.675781 13.84375 -15.738281 14.28125 -14.65625 L 14.296875 -14.609375 C 14.722656 -13.546875 14.929688 -12.445312 14.921875 -11.3125 C 14.910156 -10.1875 14.6875 -9.117188 14.25 -8.109375 C 13.820312 -7.109375 13.203125 -6.195312 12.390625 -5.375 C 11.585938 -4.5625 10.59375 -3.921875 9.40625 -3.453125 C 8.226562 -2.984375 7.0625 -2.757812 5.90625 -2.78125 C 4.757812 -2.800781 3.691406 -3.03125 2.703125 -3.46875 C 1.722656 -3.90625 0.84375 -4.519531 0.0625 -5.3125 C -0.71875 -6.113281 -1.320312 -7.054688 -1.75 -8.140625 L -1.765625 -8.1875 C -2.203125 -9.269531 -2.410156 -10.367188 -2.390625 -11.484375 C -2.378906 -12.597656 -2.160156 -13.660156 -1.734375 -14.671875 C -1.316406 -15.679688 -0.703125 -16.597656 0.109375 -17.421875 C 0.929688 -18.242188 1.929688 -18.890625 3.109375 -19.359375 Z M 8.453125 -5.96875 C 9.210938 -6.269531 9.851562 -6.691406 10.375 -7.234375 C 10.894531 -7.773438 11.285156 -8.378906 11.546875 -9.046875 C 11.804688 -9.710938 11.929688 -10.421875 11.921875 -11.171875 C 11.921875 -11.929688 11.773438 -12.679688 11.484375 -13.421875 L 11.46875 -13.46875 C 11.164062 -14.21875 10.75 -14.875 10.21875 -15.4375 C 9.695312 -16.007812 9.109375 -16.445312 8.453125 -16.75 C 7.804688 -17.050781 7.101562 -17.21875 6.34375 -17.25 C 5.59375 -17.289062 4.828125 -17.160156 4.046875 -16.859375 C 3.285156 -16.546875 2.644531 -16.125 2.125 -15.59375 C 1.601562 -15.0625 1.210938 -14.457031 0.953125 -13.78125 C 0.703125 -13.101562 0.578125 -12.382812 0.578125 -11.625 C 0.585938 -10.863281 0.742188 -10.109375 1.046875 -9.359375 L 1.0625 -9.3125 C 1.351562 -8.570312 1.757812 -7.921875 2.28125 -7.359375 C 2.800781 -6.804688 3.390625 -6.375 4.046875 -6.0625 C 4.703125 -5.75 5.410156 -5.578125 6.171875 -5.546875 C 6.929688 -5.523438 7.691406 -5.664062 8.453125 -5.96875 Z M 8.453125 -5.96875 "/></g></g></g><g fill="#ffffff" fill-opacity="1"><g transform="translate(260.480108, 331.602384)"><g><path d="M -5.625 -14.140625 C -5.820312 -14.492188 -5.863281 -14.863281 -5.75 -15.25 C -5.644531 -15.644531 -5.414062 -15.941406 -5.0625 -16.140625 L -0.6875 -18.640625 C 0.164062 -19.117188 0.992188 -19.4375 1.796875 -19.59375 C 2.597656 -19.75 3.351562 -19.75 4.0625 -19.59375 C 4.78125 -19.445312 5.429688 -19.148438 6.015625 -18.703125 C 6.609375 -18.265625 7.113281 -17.6875 7.53125 -16.96875 L 7.5625 -16.921875 C 8.007812 -16.128906 8.253906 -15.335938 8.296875 -14.546875 C 8.335938 -13.753906 8.21875 -13.003906 7.9375 -12.296875 C 7.65625 -11.585938 7.226562 -10.925781 6.65625 -10.3125 C 6.082031 -9.707031 5.394531 -9.175781 4.59375 -8.71875 L 1.75 -7.09375 L 3.71875 -3.640625 C 3.925781 -3.273438 3.976562 -2.90625 3.875 -2.53125 C 3.769531 -2.15625 3.539062 -1.867188 3.1875 -1.671875 C 2.832031 -1.472656 2.460938 -1.421875 2.078125 -1.515625 C 1.691406 -1.609375 1.394531 -1.835938 1.1875 -2.203125 Z M 0.453125 -9.375 L 3.375 -11.046875 C 4.34375 -11.597656 4.960938 -12.273438 5.234375 -13.078125 C 5.515625 -13.878906 5.441406 -14.65625 5.015625 -15.40625 L 5 -15.4375 C 4.507812 -16.300781 3.863281 -16.78125 3.0625 -16.875 C 2.257812 -16.976562 1.378906 -16.757812 0.421875 -16.21875 L -2.5 -14.546875 Z M 0.453125 -9.375 "/></g></g></g><g fill="#ffffff" fill-opacity="1"><g transform="translate(277.83108, 321.416339)"><g><path d="M 0.828125 -2.4375 L -7.328125 -13.34375 C -7.566406 -13.664062 -7.65625 -14.023438 -7.59375 -14.421875 C -7.53125 -14.816406 -7.335938 -15.140625 -7.015625 -15.390625 L 0.6875 -21.140625 C 0.976562 -21.359375 1.296875 -21.441406 1.640625 -21.390625 C 1.984375 -21.347656 2.265625 -21.179688 2.484375 -20.890625 C 2.703125 -20.597656 2.785156 -20.273438 2.734375 -19.921875 C 2.691406 -19.566406 2.523438 -19.28125 2.234375 -19.0625 L -4.3125 -14.171875 L -1.734375 -10.734375 L 3.953125 -14.984375 C 4.242188 -15.203125 4.566406 -15.28125 4.921875 -15.21875 C 5.285156 -15.164062 5.570312 -14.992188 5.78125 -14.703125 C 6 -14.410156 6.078125 -14.09375 6.015625 -13.75 C 5.960938 -13.40625 5.789062 -13.125 5.5 -12.90625 L -0.1875 -8.65625 L 2.484375 -5.09375 L 9.125 -10.0625 C 9.414062 -10.28125 9.734375 -10.363281 10.078125 -10.3125 C 10.429688 -10.257812 10.71875 -10.082031 10.9375 -9.78125 C 11.15625 -9.488281 11.238281 -9.171875 11.1875 -8.828125 C 11.132812 -8.484375 10.960938 -8.203125 10.671875 -7.984375 L 2.875 -2.15625 C 2.550781 -1.90625 2.191406 -1.804688 1.796875 -1.859375 C 1.398438 -1.910156 1.078125 -2.101562 0.828125 -2.4375 Z M 0.828125 -2.4375 "/></g></g></g><g fill="#ffffff" fill-opacity="1"><g transform="translate(293.861947, 309.126391)"><g><path d="M -8.96875 -12.3125 C -9.25 -12.601562 -9.382812 -12.945312 -9.375 -13.34375 C -9.375 -13.738281 -9.226562 -14.078125 -8.9375 -14.359375 L -4.703125 -18.46875 C -4.097656 -19.050781 -3.457031 -19.523438 -2.78125 -19.890625 C -2.113281 -20.265625 -1.425781 -20.488281 -0.71875 -20.5625 C -0.0195312 -20.644531 0.671875 -20.566406 1.359375 -20.328125 C 2.054688 -20.085938 2.71875 -19.648438 3.34375 -19.015625 L 3.375 -18.96875 C 4.300781 -18.019531 4.796875 -17.019531 4.859375 -15.96875 C 4.929688 -14.914062 4.6875 -13.867188 4.125 -12.828125 L 9.171875 -12.171875 C 9.390625 -12.128906 9.585938 -12.078125 9.765625 -12.015625 C 9.953125 -11.953125 10.125 -11.84375 10.28125 -11.6875 C 10.570312 -11.382812 10.703125 -11.046875 10.671875 -10.671875 C 10.640625 -10.304688 10.492188 -9.992188 10.234375 -9.734375 C 9.992188 -9.503906 9.742188 -9.363281 9.484375 -9.3125 C 9.222656 -9.269531 8.953125 -9.265625 8.671875 -9.296875 L 2.21875 -10.1875 L -0.40625 -7.640625 L 2.6875 -4.453125 C 2.976562 -4.148438 3.117188 -3.800781 3.109375 -3.40625 C 3.109375 -3.019531 2.960938 -2.6875 2.671875 -2.40625 C 2.378906 -2.125 2.035156 -1.984375 1.640625 -1.984375 C 1.242188 -1.984375 0.898438 -2.132812 0.609375 -2.4375 Z M -2.203125 -9.484375 L 0.84375 -12.453125 C 1.59375 -13.171875 2.015625 -13.921875 2.109375 -14.703125 C 2.210938 -15.484375 1.96875 -16.179688 1.375 -16.796875 L 1.34375 -16.828125 C 0.71875 -17.472656 0.03125 -17.753906 -0.71875 -17.671875 C -1.476562 -17.585938 -2.242188 -17.171875 -3.015625 -16.421875 L -6.0625 -13.46875 Z M -2.203125 -9.484375 "/></g></g></g></svg>